<?xml version="1.0" encoding="UTF-8"?>
<svg width="34px" height="40px" viewBox="0 0 34 40" version="1.1" xmlns="http://www.w3.org/2000/svg" xmlns:xlink="http://www.w3.org/1999/xlink">
    <title>消息</title>
    <g id="r" stroke="none" stroke-width="1" fill="none" fill-rule="evenodd">
        <g id="用户协议" transform="translate(-696.000000, -67.000000)" fill="#FFFFFF" fill-rule="nonzero">
            <g id="分组-25">
                <path d="M712.702192,67 L712.96752,67 C713.002431,67.0088093 713.037343,67.0207277 713.072753,67.0264278 C713.404413,67.0798017 713.702159,67.2103863 713.959008,67.4301001 C714.243787,67.6741689 714.443282,67.9736844 714.500636,68.3530016 C714.520586,68.4846225 714.513603,68.6209073 714.516097,68.7556374 C714.518092,68.8706763 714.516596,68.9862332 714.516596,69.1085268 C714.569462,69.1162997 714.612353,69.122518 714.655743,69.1287363 C715.057226,69.1841829 715.461203,69.2230474 715.859195,69.297149 C717.467122,69.5971826 718.973307,70.1775587 720.359794,71.0553774 C723.32229,72.9307174 725.317736,75.5714283 726.368574,78.9438275 C726.745619,80.154326 726.945612,81.3985071 726.971048,82.6685978 C726.985511,83.3857768 726.98202,84.1034739 726.982518,84.821171 C726.984015,86.43586 726.983017,88.0500308 726.983017,89.6647198 C726.983017,89.8170685 726.984513,89.7875315 727.096729,89.8300233 C727.416419,89.9512804 727.71616,90.1103656 727.990465,90.31557 C729.069233,91.1239509 729.69016,92.2168197 729.933045,93.5433934 C730.00187,93.9206378 730.002369,94.3015096 729.998878,94.6828995 C729.995885,94.9793058 729.964465,95.272603 729.897634,95.5602001 C729.527572,97.1494976 728.610894,98.3061041 727.182512,99.0455653 C726.504729,99.3963819 725.778069,99.5451032 725.015501,99.5445864 C717.012274,99.541994 709.008548,99.5430304 701.005321,99.5430304 C700.938989,99.5430304 700.872657,99.5419941 700.806325,99.5414759 C700.477159,99.5368122 700.152481,99.4922475 699.83329,99.4108913 C698.621859,99.1020483 697.658299,98.4211429 696.931141,97.397712 C696.420934,96.6794966 696.120196,95.8778523 696.040398,94.993297 C696.034912,94.9311139 696.013965,94.8704853 696,94.8088204 L696,94.1134055 C696.008977,94.0854231 696.021944,94.0584771 696.025934,94.0299765 C696.040896,93.9113103 696.051869,93.7926442 696.066332,93.673978 C696.149621,92.9977363 696.355599,92.3634682 696.701722,91.7789467 C697.223401,90.8975006 697.962529,90.2684145 698.886189,89.8554147 C698.936063,89.8331325 698.985936,89.810332 699.040797,89.7859769 L699.040797,89.6243007 C699.040797,87.4789822 699.040299,85.3341819 699.041296,83.1888635 C699.041795,82.5981236 699.07122,82.0089383 699.140046,81.4218258 C699.236801,80.5963445 699.398392,79.7848545 699.643271,78.9915012 C700.633762,75.7833691 702.511007,73.2333421 705.231616,71.3243195 C707.020085,70.0692563 708.997576,69.2816032 711.149625,68.9489234 C711.202989,68.9406323 711.255856,68.9287139 711.315704,68.9173136 C711.315704,68.7976111 711.311714,68.6856814 711.316701,68.5742699 C711.321689,68.4737405 711.323185,68.3706201 711.349119,68.2747544 C711.523677,67.6301225 711.931644,67.2186774 712.567533,67.0399009 C712.61192,67.0274642 712.656807,67.013473 712.702192,67 L712.702192,67 Z M712.906175,106.999826 C711.85434,107.003971 710.883299,106.934015 709.91575,106.800322 C708.706314,106.633463 707.520318,106.367631 706.365244,105.97484 C706.186696,105.914212 706.010642,105.845292 705.832593,105.783109 C705.522379,105.674288 705.273011,105.481003 705.069027,105.23227 C704.708441,104.792324 704.538372,104.286568 704.567298,103.720701 C704.605701,102.96984 705.236104,102.311735 705.99169,102.219497 C706.254026,102.187369 706.498905,102.230897 706.74179,102.328317 C707.369201,102.579641 708.015065,102.776036 708.671402,102.940821 C709.54868,103.160535 710.438925,103.306665 711.339643,103.387503 C712.157073,103.461087 712.976497,103.476633 713.79642,103.43725 C715.643242,103.347603 717.436699,102.993677 719.175295,102.372364 C719.234645,102.351118 719.291501,102.32469 719.349853,102.301889 C719.855572,102.102903 720.347326,102.131404 720.813146,102.409673 C721.184206,102.63146 721.392678,102.961031 721.441056,103.391131 C721.481453,103.747129 721.462501,104.094837 721.337817,104.43218 C721.144307,104.955555 720.775242,105.319845 720.266531,105.546295 C719.348855,105.955667 718.396767,106.266065 717.417747,106.495106 C716.59932,106.686837 715.770918,106.818977 714.93354,106.900851 C714.234311,106.967698 713.533586,107.00138 712.906175,106.999826 L712.906175,106.999826 Z" id="消息"></path>
            </g>
        </g>
    </g>
</svg>