<?xml version="1.0" encoding="UTF-8" standalone="no"?>
<!DOCTYPE svg PUBLIC "-//W3C//DTD SVG 1.1//EN"
 "http://www.w3.org/Graphics/SVG/1.1/DTD/svg11.dtd">
<!-- Generated by graphviz version 2.38.0 (20140413.2041)
 -->
<!-- Title: G Pages: 1 -->
<svg width="1705pt" height="1106pt"
 viewBox="0.00 0.00 1705.20 1106.20" xmlns="http://www.w3.org/2000/svg" xmlns:xlink="http://www.w3.org/1999/xlink">
<g id="graph0" class="graph" transform="scale(1 1) rotate(0) translate(21.6 1084.6)">
<title>G</title>
<polygon fill="#111111" stroke="none" points="-21.6,21.6 -21.6,-1084.6 1683.6,-1084.6 1683.6,21.6 -21.6,21.6"/>
<!-- API/ApiConfig.ts -->
<g id="node1" class="node"><title>API/ApiConfig.ts</title>
<path fill="none" stroke="#c6c5fe" d="M1129.83,-528C1129.83,-528 1023.17,-528 1023.17,-528 1019.33,-528 1015.5,-524.167 1015.5,-520.333 1015.5,-520.333 1015.5,-512.667 1015.5,-512.667 1015.5,-508.833 1019.33,-505 1023.17,-505 1023.17,-505 1129.83,-505 1129.83,-505 1133.67,-505 1137.5,-508.833 1137.5,-512.667 1137.5,-512.667 1137.5,-520.333 1137.5,-520.333 1137.5,-524.167 1133.67,-528 1129.83,-528"/>
<text text-anchor="middle" x="1076.5" y="-512.8" font-family="Arial" font-size="14.00" fill="#c6c5fe">API/ApiConfig.ts</text>
</g>
<!-- API/DeviceInfoCollector.ts -->
<g id="node2" class="node"><title>API/DeviceInfoCollector.ts</title>
<path fill="none" stroke="#c6c5fe" d="M1423.33,-626C1423.33,-626 1253.67,-626 1253.67,-626 1249.83,-626 1246,-622.167 1246,-618.333 1246,-618.333 1246,-610.667 1246,-610.667 1246,-606.833 1249.83,-603 1253.67,-603 1253.67,-603 1423.33,-603 1423.33,-603 1427.17,-603 1431,-606.833 1431,-610.667 1431,-610.667 1431,-618.333 1431,-618.333 1431,-622.167 1427.17,-626 1423.33,-626"/>
<text text-anchor="middle" x="1338.5" y="-610.8" font-family="Arial" font-size="14.00" fill="#c6c5fe">API/DeviceInfoCollector.ts</text>
</g>
<!-- API/ApiConfig.ts&#45;&gt;API/DeviceInfoCollector.ts -->
<g id="edge1" class="edge"><title>API/ApiConfig.ts&#45;&gt;API/DeviceInfoCollector.ts</title>
<path fill="none" stroke="#757575" d="M1108.09,-528.03C1155,-545.712 1244.76,-579.542 1297.01,-599.238"/>
<polygon fill="#757575" stroke="#757575" points="1296.03,-602.61 1306.62,-602.862 1298.5,-596.06 1296.03,-602.61"/>
</g>
<!-- API/NativeBridgeManager.ts -->
<g id="node4" class="node"><title>API/NativeBridgeManager.ts</title>
<path fill="none" stroke="#cfffac" d="M1654.33,-526C1654.33,-526 1474.67,-526 1474.67,-526 1470.83,-526 1467,-522.167 1467,-518.333 1467,-518.333 1467,-510.667 1467,-510.667 1467,-506.833 1470.83,-503 1474.67,-503 1474.67,-503 1654.33,-503 1654.33,-503 1658.17,-503 1662,-506.833 1662,-510.667 1662,-510.667 1662,-518.333 1662,-518.333 1662,-522.167 1658.17,-526 1654.33,-526"/>
<text text-anchor="middle" x="1564.5" y="-510.8" font-family="Arial" font-size="14.00" fill="#cfffac">API/NativeBridgeManager.ts</text>
</g>
<!-- API/DeviceInfoCollector.ts&#45;&gt;API/NativeBridgeManager.ts -->
<g id="edge3" class="edge"><title>API/DeviceInfoCollector.ts&#45;&gt;API/NativeBridgeManager.ts</title>
<path fill="none" stroke="#757575" d="M1365.63,-602.833C1405.85,-584.881 1482.96,-550.454 1528.13,-530.289"/>
<polygon fill="#757575" stroke="#757575" points="1529.83,-533.365 1537.53,-526.093 1526.97,-526.973 1529.83,-533.365"/>
</g>
<!-- API/ApiConfigExample.ts -->
<g id="node3" class="node"><title>API/ApiConfigExample.ts</title>
<path fill="none" stroke="#c6c5fe" d="M858.333,-385C858.333,-385 695.667,-385 695.667,-385 691.833,-385 688,-381.167 688,-377.333 688,-377.333 688,-369.667 688,-369.667 688,-365.833 691.833,-362 695.667,-362 695.667,-362 858.333,-362 858.333,-362 862.167,-362 866,-365.833 866,-369.667 866,-369.667 866,-377.333 866,-377.333 866,-381.167 862.167,-385 858.333,-385"/>
<text text-anchor="middle" x="777" y="-369.8" font-family="Arial" font-size="14.00" fill="#c6c5fe">API/ApiConfigExample.ts</text>
</g>
<!-- API/ApiConfigExample.ts&#45;&gt;API/ApiConfig.ts -->
<g id="edge2" class="edge"><title>API/ApiConfigExample.ts&#45;&gt;API/ApiConfig.ts</title>
<path fill="none" stroke="#757575" d="M865.616,-385.033C879.844,-388.623 894.123,-393.33 907,-399.5 925.783,-408.499 926.268,-417.098 943,-429.5 977.958,-455.412 1020.28,-482.506 1047.54,-499.436"/>
<polygon fill="#757575" stroke="#757575" points="1045.82,-502.491 1056.17,-504.771 1049.5,-496.537 1045.82,-502.491"/>
</g>
<!-- API/EncryptedApiClient.ts -->
<g id="node5" class="node"><title>API/EncryptedApiClient.ts</title>
<path fill="none" stroke="#c6c5fe" d="M859.833,-780C859.833,-780 694.167,-780 694.167,-780 690.333,-780 686.5,-776.167 686.5,-772.333 686.5,-772.333 686.5,-764.667 686.5,-764.667 686.5,-760.833 690.333,-757 694.167,-757 694.167,-757 859.833,-757 859.833,-757 863.667,-757 867.5,-760.833 867.5,-764.667 867.5,-764.667 867.5,-772.333 867.5,-772.333 867.5,-776.167 863.667,-780 859.833,-780"/>
<text text-anchor="middle" x="777" y="-764.8" font-family="Arial" font-size="14.00" fill="#c6c5fe">API/EncryptedApiClient.ts</text>
</g>
<!-- API/EncryptedApiClient.ts&#45;&gt;API/ApiConfig.ts -->
<g id="edge4" class="edge"><title>API/EncryptedApiClient.ts&#45;&gt;API/ApiConfig.ts</title>
<path fill="none" stroke="#757575" d="M809.328,-756.894C836.686,-745.875 876.655,-727.582 907,-704.5 973.891,-653.618 1035.11,-573.485 1061.63,-536.467"/>
<polygon fill="#757575" stroke="#757575" points="1064.68,-538.212 1067.6,-528.028 1058.97,-534.166 1064.68,-538.212"/>
</g>
<!-- API/EncryptedApiClient.ts&#45;&gt;API/DeviceInfoCollector.ts -->
<g id="edge5" class="edge"><title>API/EncryptedApiClient.ts&#45;&gt;API/DeviceInfoCollector.ts</title>
<path fill="none" stroke="#757575" d="M857.266,-780.007C947.078,-789.451 1095.79,-794.015 1210,-742.5 1262.08,-719.008 1304.6,-664.141 1324.79,-634.443"/>
<polygon fill="#757575" stroke="#757575" points="1327.72,-636.364 1330.33,-626.096 1321.89,-632.495 1327.72,-636.364"/>
</g>
<!-- API/LianyunshanSDK.ts -->
<g id="node6" class="node"><title>API/LianyunshanSDK.ts</title>
<path fill="none" stroke="#c6c5fe" d="M536.333,-858C536.333,-858 384.667,-858 384.667,-858 380.833,-858 377,-854.167 377,-850.333 377,-850.333 377,-842.667 377,-842.667 377,-838.833 380.833,-835 384.667,-835 384.667,-835 536.333,-835 536.333,-835 540.167,-835 544,-838.833 544,-842.667 544,-842.667 544,-850.333 544,-850.333 544,-854.167 540.167,-858 536.333,-858"/>
<text text-anchor="middle" x="460.5" y="-842.8" font-family="Arial" font-size="14.00" fill="#c6c5fe">API/LianyunshanSDK.ts</text>
</g>
<!-- API/LianyunshanSDK.ts&#45;&gt;API/ApiConfig.ts -->
<g id="edge6" class="edge"><title>API/LianyunshanSDK.ts&#45;&gt;API/ApiConfig.ts</title>
<path fill="none" stroke="#757575" d="M544.199,-855.828C639.433,-862.305 796.882,-859.521 907,-788.5 1002.43,-726.955 1052.89,-590.268 1069.36,-537.683"/>
<polygon fill="#757575" stroke="#757575" points="1072.72,-538.65 1072.28,-528.065 1066.02,-536.616 1072.72,-538.65"/>
</g>
<!-- API/LianyunshanSDK.ts&#45;&gt;API/NativeBridgeManager.ts -->
<g id="edge8" class="edge"><title>API/LianyunshanSDK.ts&#45;&gt;API/NativeBridgeManager.ts</title>
<path fill="none" stroke="#757575" d="M544.102,-851.71C712.796,-861.204 1091,-876.298 1210,-829.5 1371.2,-766.104 1506.54,-593.64 1549.37,-534.623"/>
<polygon fill="#757575" stroke="#757575" points="1552.45,-536.325 1555.44,-526.159 1546.77,-532.246 1552.45,-536.325"/>
</g>
<!-- API/LianyunshanSDK.ts&#45;&gt;API/EncryptedApiClient.ts -->
<g id="edge7" class="edge"><title>API/LianyunshanSDK.ts&#45;&gt;API/EncryptedApiClient.ts</title>
<path fill="none" stroke="#757575" d="M507.906,-834.991C564.231,-821.021 659.162,-797.477 719.637,-782.479"/>
<polygon fill="#757575" stroke="#757575" points="720.541,-785.861 729.404,-780.056 718.856,-779.067 720.541,-785.861"/>
</g>
<!-- API/LoginService.ts -->
<g id="node7" class="node"><title>API/LoginService.ts</title>
<path fill="none" stroke="#c6c5fe" d="M524.333,-683C524.333,-683 396.667,-683 396.667,-683 392.833,-683 389,-679.167 389,-675.333 389,-675.333 389,-667.667 389,-667.667 389,-663.833 392.833,-660 396.667,-660 396.667,-660 524.333,-660 524.333,-660 528.167,-660 532,-663.833 532,-667.667 532,-667.667 532,-675.333 532,-675.333 532,-679.167 528.167,-683 524.333,-683"/>
<text text-anchor="middle" x="460.5" y="-667.8" font-family="Arial" font-size="14.00" fill="#c6c5fe">API/LoginService.ts</text>
</g>
<!-- API/LoginService.ts&#45;&gt;API/ApiConfig.ts -->
<g id="edge9" class="edge"><title>API/LoginService.ts&#45;&gt;API/ApiConfig.ts</title>
<path fill="none" stroke="#757575" d="M532.154,-676.205C622.048,-679.77 780.786,-677.875 907,-632.5 967.487,-610.755 1026.67,-561.778 1056.16,-534.942"/>
<polygon fill="#757575" stroke="#757575" points="1058.7,-537.36 1063.66,-528.002 1053.94,-532.221 1058.7,-537.36"/>
</g>
<!-- API/LoginService.ts&#45;&gt;API/DeviceInfoCollector.ts -->
<g id="edge10" class="edge"><title>API/LoginService.ts&#45;&gt;API/DeviceInfoCollector.ts</title>
<path fill="none" stroke="#757575" d="M532.193,-673.593C620.135,-675.605 774.832,-677.204 907,-668.5 1029.37,-660.442 1170.2,-640.793 1256.53,-627.555"/>
<polygon fill="#757575" stroke="#757575" points="1257.17,-630.998 1266.52,-626.014 1256.11,-624.079 1257.17,-630.998"/>
</g>
<!-- API/LoginService.ts&#45;&gt;API/EncryptedApiClient.ts -->
<g id="edge11" class="edge"><title>API/LoginService.ts&#45;&gt;API/EncryptedApiClient.ts</title>
<path fill="none" stroke="#757575" d="M494.696,-683.007C525.151,-693.731 571.406,-710.438 611,-726.5 627.225,-733.082 630.318,-737.183 647,-742.5 662.142,-747.326 678.58,-751.449 694.491,-754.895"/>
<polygon fill="#757575" stroke="#757575" points="693.809,-758.328 704.314,-756.953 695.244,-751.477 693.809,-758.328"/>
</g>
<!-- API/PangleAdManager.ts -->
<g id="node8" class="node"><title>API/PangleAdManager.ts</title>
<path fill="none" stroke="#c6c5fe" d="M1418.83,-318C1418.83,-318 1258.17,-318 1258.17,-318 1254.33,-318 1250.5,-314.167 1250.5,-310.333 1250.5,-310.333 1250.5,-302.667 1250.5,-302.667 1250.5,-298.833 1254.33,-295 1258.17,-295 1258.17,-295 1418.83,-295 1418.83,-295 1422.67,-295 1426.5,-298.833 1426.5,-302.667 1426.5,-302.667 1426.5,-310.333 1426.5,-310.333 1426.5,-314.167 1422.67,-318 1418.83,-318"/>
<text text-anchor="middle" x="1338.5" y="-302.8" font-family="Arial" font-size="14.00" fill="#c6c5fe">API/PangleAdManager.ts</text>
</g>
<!-- API/PangleAdManager.ts&#45;&gt;API/NativeBridgeManager.ts -->
<g id="edge12" class="edge"><title>API/PangleAdManager.ts&#45;&gt;API/NativeBridgeManager.ts</title>
<path fill="none" stroke="#757575" d="M1352.19,-318.279C1389.38,-352.816 1498.37,-454.023 1543.54,-495.964"/>
<polygon fill="#757575" stroke="#757575" points="1541.24,-498.61 1550.95,-502.85 1546.01,-493.481 1541.24,-498.61"/>
</g>
<!-- API/RiskDetectionService.ts -->
<g id="node9" class="node"><title>API/RiskDetectionService.ts</title>
<path fill="none" stroke="#c6c5fe" d="M550.833,-759C550.833,-759 370.167,-759 370.167,-759 366.333,-759 362.5,-755.167 362.5,-751.333 362.5,-751.333 362.5,-743.667 362.5,-743.667 362.5,-739.833 366.333,-736 370.167,-736 370.167,-736 550.833,-736 550.833,-736 554.667,-736 558.5,-739.833 558.5,-743.667 558.5,-743.667 558.5,-751.333 558.5,-751.333 558.5,-755.167 554.667,-759 550.833,-759"/>
<text text-anchor="middle" x="460.5" y="-743.8" font-family="Arial" font-size="14.00" fill="#c6c5fe">API/RiskDetectionService.ts</text>
</g>
<!-- API/RiskDetectionService.ts&#45;&gt;API/ApiConfig.ts -->
<g id="edge13" class="edge"><title>API/RiskDetectionService.ts&#45;&gt;API/ApiConfig.ts</title>
<path fill="none" stroke="#757575" d="M558.8,-745.573C652.389,-740.273 795.679,-722.925 907,-668.5 973.28,-636.095 1032.76,-569.764 1059.92,-536.48"/>
<polygon fill="#757575" stroke="#757575" points="1062.87,-538.386 1066.4,-528.397 1057.42,-534.004 1062.87,-538.386"/>
</g>
<!-- API/RiskDetectionService.ts&#45;&gt;API/DeviceInfoCollector.ts -->
<g id="edge14" class="edge"><title>API/RiskDetectionService.ts&#45;&gt;API/DeviceInfoCollector.ts</title>
<path fill="none" stroke="#757575" d="M558.504,-754.796C576.256,-757.722 594.405,-761.806 611,-767.5 628.521,-773.512 629.119,-783.666 647,-788.5 888.589,-853.813 987.042,-892.17 1210,-778.5 1271.09,-747.356 1311.76,-672.015 1328.65,-635.303"/>
<polygon fill="#757575" stroke="#757575" points="1331.91,-636.6 1332.78,-626.041 1325.51,-633.749 1331.91,-636.6"/>
</g>
<!-- API/RiskDetectionService.ts&#45;&gt;API/EncryptedApiClient.ts -->
<g id="edge15" class="edge"><title>API/RiskDetectionService.ts&#45;&gt;API/EncryptedApiClient.ts</title>
<path fill="none" stroke="#757575" d="M558.856,-754.001C596.04,-756.484 638.478,-759.317 675.913,-761.817"/>
<polygon fill="#757575" stroke="#757575" points="676.119,-765.338 686.33,-762.513 676.586,-758.354 676.119,-765.338"/>
</g>
<!-- API/WeChatLogin.ts -->
<g id="node10" class="node"><title>API/WeChatLogin.ts</title>
<path fill="none" stroke="#c6c5fe" d="M842.333,-344C842.333,-344 711.667,-344 711.667,-344 707.833,-344 704,-340.167 704,-336.333 704,-336.333 704,-328.667 704,-328.667 704,-324.833 707.833,-321 711.667,-321 711.667,-321 842.333,-321 842.333,-321 846.167,-321 850,-324.833 850,-328.667 850,-328.667 850,-336.333 850,-336.333 850,-340.167 846.167,-344 842.333,-344"/>
<text text-anchor="middle" x="777" y="-328.8" font-family="Arial" font-size="14.00" fill="#c6c5fe">API/WeChatLogin.ts</text>
</g>
<!-- API/WeChatLogin.ts&#45;&gt;API/ApiConfig.ts -->
<g id="edge16" class="edge"><title>API/WeChatLogin.ts&#45;&gt;API/ApiConfig.ts</title>
<path fill="none" stroke="#757575" d="M850.133,-331.429C870.127,-334.222 890.775,-340.328 907,-352.5 937.219,-375.171 918.273,-400.939 943,-429.5 970.224,-460.946 1011.49,-485.586 1040.72,-500.496"/>
<polygon fill="#757575" stroke="#757575" points="1039.25,-503.671 1049.76,-504.991 1042.37,-497.403 1039.25,-503.671"/>
</g>
<!-- API/WeChatLogin.ts&#45;&gt;API/NativeBridgeManager.ts -->
<g id="edge17" class="edge"><title>API/WeChatLogin.ts&#45;&gt;API/NativeBridgeManager.ts</title>
<path fill="none" stroke="#757575" d="M850.181,-342.543C868.754,-345.441 888.668,-348.824 907,-352.5 1134.7,-398.153 1402.52,-469.987 1512.48,-500.277"/>
<polygon fill="#757575" stroke="#757575" points="1511.74,-503.704 1522.31,-502.991 1513.6,-496.956 1511.74,-503.704"/>
</g>
<!-- scripts/AgreementDialogController.ts -->
<g id="node11" class="node"><title>scripts/AgreementDialogController.ts</title>
<path fill="none" stroke="#cfffac" d="M577.833,-103C577.833,-103 343.167,-103 343.167,-103 339.333,-103 335.5,-99.1667 335.5,-95.3333 335.5,-95.3333 335.5,-87.6667 335.5,-87.6667 335.5,-83.8333 339.333,-80 343.167,-80 343.167,-80 577.833,-80 577.833,-80 581.667,-80 585.5,-83.8333 585.5,-87.6667 585.5,-87.6667 585.5,-95.3333 585.5,-95.3333 585.5,-99.1667 581.667,-103 577.833,-103"/>
<text text-anchor="middle" x="460.5" y="-87.8" font-family="Arial" font-size="14.00" fill="#cfffac">scripts/AgreementDialogController.ts</text>
</g>
<!-- scripts/AgreementDialogExample.ts -->
<g id="node12" class="node"><title>scripts/AgreementDialogExample.ts</title>
<path fill="none" stroke="#c6c5fe" d="M251.333,-103C251.333,-103 22.6667,-103 22.6667,-103 18.8333,-103 15,-99.1667 15,-95.3333 15,-95.3333 15,-87.6667 15,-87.6667 15,-83.8333 18.8333,-80 22.6667,-80 22.6667,-80 251.333,-80 251.333,-80 255.167,-80 259,-83.8333 259,-87.6667 259,-87.6667 259,-95.3333 259,-95.3333 259,-99.1667 255.167,-103 251.333,-103"/>
<text text-anchor="middle" x="137" y="-87.8" font-family="Arial" font-size="14.00" fill="#c6c5fe">scripts/AgreementDialogExample.ts</text>
</g>
<!-- scripts/AgreementDialogExample.ts&#45;&gt;scripts/AgreementDialogController.ts -->
<g id="edge18" class="edge"><title>scripts/AgreementDialogExample.ts&#45;&gt;scripts/AgreementDialogController.ts</title>
<path fill="none" stroke="#757575" d="M259.087,-91.5C280.697,-91.5 303.328,-91.5 325.279,-91.5"/>
<polygon fill="#757575" stroke="#757575" points="325.311,-95.0001 335.311,-91.5 325.311,-88.0001 325.311,-95.0001"/>
</g>
<!-- scripts/EffectContainerPool.ts -->
<g id="node13" class="node"><title>scripts/EffectContainerPool.ts</title>
<path fill="none" stroke="#cfffac" d="M872.333,-23C872.333,-23 681.667,-23 681.667,-23 677.833,-23 674,-19.1667 674,-15.3333 674,-15.3333 674,-7.66667 674,-7.66667 674,-3.83333 677.833,-0 681.667,-0 681.667,-0 872.333,-0 872.333,-0 876.167,-0 880,-3.83333 880,-7.66667 880,-7.66667 880,-15.3333 880,-15.3333 880,-19.1667 876.167,-23 872.333,-23"/>
<text text-anchor="middle" x="777" y="-7.8" font-family="Arial" font-size="14.00" fill="#cfffac">scripts/EffectContainerPool.ts</text>
</g>
<!-- scripts/GameProgressManager.ts -->
<g id="node14" class="node"><title>scripts/GameProgressManager.ts</title>
<path fill="none" stroke="#c6c5fe" d="M884.333,-303C884.333,-303 669.667,-303 669.667,-303 665.833,-303 662,-299.167 662,-295.333 662,-295.333 662,-287.667 662,-287.667 662,-283.833 665.833,-280 669.667,-280 669.667,-280 884.333,-280 884.333,-280 888.167,-280 892,-283.833 892,-287.667 892,-287.667 892,-295.333 892,-295.333 892,-299.167 888.167,-303 884.333,-303"/>
<text text-anchor="middle" x="777" y="-287.8" font-family="Arial" font-size="14.00" fill="#c6c5fe">scripts/GameProgressManager.ts</text>
</g>
<!-- scripts/GameProgressManager.ts&#45;&gt;API/ApiConfig.ts -->
<g id="edge19" class="edge"><title>scripts/GameProgressManager.ts&#45;&gt;API/ApiConfig.ts</title>
<path fill="none" stroke="#757575" d="M890.157,-303.068C896.028,-305.451 901.688,-308.241 907,-311.5 930.34,-325.82 926.089,-339.963 943,-361.5 982.4,-411.678 1031.99,-468.02 1057.9,-496.982"/>
<polygon fill="#757575" stroke="#757575" points="1055.56,-499.62 1064.84,-504.726 1060.77,-494.945 1055.56,-499.62"/>
</g>
<!-- scripts/GameProgressManager.ts&#45;&gt;API/DeviceInfoCollector.ts -->
<g id="edge20" class="edge"><title>scripts/GameProgressManager.ts&#45;&gt;API/DeviceInfoCollector.ts</title>
<path fill="none" stroke="#757575" d="M878.29,-303.061C888.126,-305.378 897.845,-308.16 907,-311.5 1055.01,-365.491 1084.42,-400.36 1210,-495.5 1252.03,-527.342 1295.88,-570.932 1319.62,-595.551"/>
<polygon fill="#757575" stroke="#757575" points="1317.16,-598.033 1326.6,-602.838 1322.21,-593.193 1317.16,-598.033"/>
</g>
<!-- scripts/按钮显现隐藏/LuckyDrawButton.ts -->
<g id="node15" class="node"><title>scripts/按钮显现隐藏/LuckyDrawButton.ts</title>
<path fill="none" stroke="#cfffac" d="M1202.33,-303C1202.33,-303 950.667,-303 950.667,-303 946.833,-303 943,-299.167 943,-295.333 943,-295.333 943,-287.667 943,-287.667 943,-283.833 946.833,-280 950.667,-280 950.667,-280 1202.33,-280 1202.33,-280 1206.17,-280 1210,-283.833 1210,-287.667 1210,-287.667 1210,-295.333 1210,-295.333 1210,-299.167 1206.17,-303 1202.33,-303"/>
<text text-anchor="middle" x="1076.5" y="-287.8" font-family="Arial" font-size="14.00" fill="#cfffac">scripts/按钮显现隐藏/LuckyDrawButton.ts</text>
</g>
<!-- scripts/GameProgressManager.ts&#45;&gt;scripts/按钮显现隐藏/LuckyDrawButton.ts -->
<g id="edge21" class="edge"><title>scripts/GameProgressManager.ts&#45;&gt;scripts/按钮显现隐藏/LuckyDrawButton.ts</title>
<path fill="none" stroke="#757575" d="M892.17,-291.5C905.359,-291.5 918.931,-291.5 932.44,-291.5"/>
<polygon fill="#757575" stroke="#757575" points="932.751,-295 942.751,-291.5 932.751,-288 932.751,-295"/>
</g>
<!-- scripts/音乐/AudioManager.ts -->
<g id="node16" class="node"><title>scripts/音乐/AudioManager.ts</title>
<path fill="none" stroke="#cfffac" d="M1167.83,-185C1167.83,-185 985.167,-185 985.167,-185 981.333,-185 977.5,-181.167 977.5,-177.333 977.5,-177.333 977.5,-169.667 977.5,-169.667 977.5,-165.833 981.333,-162 985.167,-162 985.167,-162 1167.83,-162 1167.83,-162 1171.67,-162 1175.5,-165.833 1175.5,-169.667 1175.5,-169.667 1175.5,-177.333 1175.5,-177.333 1175.5,-181.167 1171.67,-185 1167.83,-185"/>
<text text-anchor="middle" x="1076.5" y="-169.8" font-family="Arial" font-size="14.00" fill="#cfffac">scripts/音乐/AudioManager.ts</text>
</g>
<!-- scripts/GameProgressManager.ts&#45;&gt;scripts/音乐/AudioManager.ts -->
<g id="edge22" class="edge"><title>scripts/GameProgressManager.ts&#45;&gt;scripts/音乐/AudioManager.ts</title>
<path fill="none" stroke="#757575" d="M807.067,-279.971C860.943,-258.602 976.31,-212.843 1036.75,-188.869"/>
<polygon fill="#757575" stroke="#757575" points="1038.31,-192.016 1046.31,-185.076 1035.73,-185.51 1038.31,-192.016"/>
</g>
<!-- scripts/ItemData.ts -->
<g id="node17" class="node"><title>scripts/ItemData.ts</title>
<path fill="none" stroke="#cfffac" d="M836.833,-144C836.833,-144 717.167,-144 717.167,-144 713.333,-144 709.5,-140.167 709.5,-136.333 709.5,-136.333 709.5,-128.667 709.5,-128.667 709.5,-124.833 713.333,-121 717.167,-121 717.167,-121 836.833,-121 836.833,-121 840.667,-121 844.5,-124.833 844.5,-128.667 844.5,-128.667 844.5,-136.333 844.5,-136.333 844.5,-140.167 840.667,-144 836.833,-144"/>
<text text-anchor="middle" x="777" y="-128.8" font-family="Arial" font-size="14.00" fill="#cfffac">scripts/ItemData.ts</text>
</g>
<!-- scripts/ItemDropGame.ts -->
<g id="node18" class="node"><title>scripts/ItemDropGame.ts</title>
<path fill="none" stroke="#c6c5fe" d="M540.833,-144C540.833,-144 380.167,-144 380.167,-144 376.333,-144 372.5,-140.167 372.5,-136.333 372.5,-136.333 372.5,-128.667 372.5,-128.667 372.5,-124.833 376.333,-121 380.167,-121 380.167,-121 540.833,-121 540.833,-121 544.667,-121 548.5,-124.833 548.5,-128.667 548.5,-128.667 548.5,-136.333 548.5,-136.333 548.5,-140.167 544.667,-144 540.833,-144"/>
<text text-anchor="middle" x="460.5" y="-128.8" font-family="Arial" font-size="14.00" fill="#c6c5fe">scripts/ItemDropGame.ts</text>
</g>
<!-- scripts/ItemDropGame.ts&#45;&gt;API/ApiConfig.ts -->
<g id="edge23" class="edge"><title>scripts/ItemDropGame.ts&#45;&gt;API/ApiConfig.ts</title>
<path fill="none" stroke="#757575" d="M495.591,-144.048C532.728,-156.549 593.931,-176.92 647,-193.5 762.033,-229.439 809.554,-199.588 907,-270.5 928.861,-286.409 1027.26,-440.181 1062.71,-496.209"/>
<polygon fill="#757575" stroke="#757575" points="1059.91,-498.322 1068.21,-504.906 1065.83,-494.583 1059.91,-498.322"/>
</g>
<!-- scripts/ItemDropGame.ts&#45;&gt;scripts/EffectContainerPool.ts -->
<g id="edge24" class="edge"><title>scripts/ItemDropGame.ts&#45;&gt;scripts/EffectContainerPool.ts</title>
<path fill="none" stroke="#757575" d="M548.648,-134.806C570.713,-131.678 593.181,-124.871 611,-111.5 642.186,-88.0984 615.982,-55.1233 647,-31.5 652.391,-27.3945 658.282,-23.9752 664.483,-21.1378"/>
<polygon fill="#757575" stroke="#757575" points="665.808,-24.3773 673.768,-17.3848 663.185,-17.8874 665.808,-24.3773"/>
</g>
<!-- scripts/ItemDropGame.ts&#45;&gt;scripts/GameProgressManager.ts -->
<g id="edge25" class="edge"><title>scripts/ItemDropGame.ts&#45;&gt;scripts/GameProgressManager.ts</title>
<path fill="none" stroke="#757575" d="M484.011,-144.146C518.868,-162.152 588.035,-197.776 647,-227.5 679.608,-243.938 717,-262.452 743.103,-275.323"/>
<polygon fill="#757575" stroke="#757575" points="741.662,-278.515 752.179,-279.795 744.756,-272.235 741.662,-278.515"/>
</g>
<!-- scripts/ItemDropGame.ts&#45;&gt;scripts/音乐/AudioManager.ts -->
<g id="edge28" class="edge"><title>scripts/ItemDropGame.ts&#45;&gt;scripts/音乐/AudioManager.ts</title>
<path fill="none" stroke="#757575" d="M545.362,-120.978C577.132,-117.147 613.67,-113.381 647,-111.5 762.372,-104.99 793.235,-91.2342 907,-111.5 956.158,-120.257 1009.77,-142.33 1043.02,-157.627"/>
<polygon fill="#757575" stroke="#757575" points="1041.7,-160.875 1052.24,-161.939 1044.67,-154.534 1041.7,-160.875"/>
</g>
<!-- scripts/ItemDropGame.ts&#45;&gt;scripts/ItemData.ts -->
<g id="edge26" class="edge"><title>scripts/ItemDropGame.ts&#45;&gt;scripts/ItemData.ts</title>
<path fill="none" stroke="#757575" d="M548.688,-132.5C595.925,-132.5 653.764,-132.5 699.277,-132.5"/>
<polygon fill="#757575" stroke="#757575" points="699.382,-136 709.382,-132.5 699.382,-129 699.382,-136"/>
</g>
<!-- scripts/RewardEffectController.ts -->
<g id="node19" class="node"><title>scripts/RewardEffectController.ts</title>
<path fill="none" stroke="#cfffac" d="M882.333,-64C882.333,-64 671.667,-64 671.667,-64 667.833,-64 664,-60.1667 664,-56.3333 664,-56.3333 664,-48.6667 664,-48.6667 664,-44.8333 667.833,-41 671.667,-41 671.667,-41 882.333,-41 882.333,-41 886.167,-41 890,-44.8333 890,-48.6667 890,-48.6667 890,-56.3333 890,-56.3333 890,-60.1667 886.167,-64 882.333,-64"/>
<text text-anchor="middle" x="777" y="-48.8" font-family="Arial" font-size="14.00" fill="#cfffac">scripts/RewardEffectController.ts</text>
</g>
<!-- scripts/ItemDropGame.ts&#45;&gt;scripts/RewardEffectController.ts -->
<g id="edge27" class="edge"><title>scripts/ItemDropGame.ts&#45;&gt;scripts/RewardEffectController.ts</title>
<path fill="none" stroke="#757575" d="M548.653,-129.174C569.782,-125.985 591.799,-120.557 611,-111.5 630.631,-102.24 627.653,-88.338 647,-78.5 656.182,-73.8309 666.132,-69.9999 676.294,-66.8567"/>
<polygon fill="#757575" stroke="#757575" points="677.436,-70.1703 686.083,-64.049 675.506,-63.4416 677.436,-70.1703"/>
</g>
<!-- scripts/LoginController.ts -->
<g id="node20" class="node"><title>scripts/LoginController.ts</title>
<path fill="none" stroke="#c6c5fe" d="M216.333,-423C216.333,-423 57.6667,-423 57.6667,-423 53.8333,-423 50,-419.167 50,-415.333 50,-415.333 50,-407.667 50,-407.667 50,-403.833 53.8333,-400 57.6667,-400 57.6667,-400 216.333,-400 216.333,-400 220.167,-400 224,-403.833 224,-407.667 224,-407.667 224,-415.333 224,-415.333 224,-419.167 220.167,-423 216.333,-423"/>
<text text-anchor="middle" x="137" y="-407.8" font-family="Arial" font-size="14.00" fill="#c6c5fe">scripts/LoginController.ts</text>
</g>
<!-- scripts/LoginController.ts&#45;&gt;API/ApiConfig.ts -->
<g id="edge29" class="edge"><title>scripts/LoginController.ts&#45;&gt;API/ApiConfig.ts</title>
<path fill="none" stroke="#757575" d="M224.134,-420.495C251.564,-423.23 282.044,-426.136 310,-428.5 575.043,-450.917 644.772,-425.927 907,-470.5 949.991,-477.808 997.852,-491.42 1031.55,-501.949"/>
<polygon fill="#757575" stroke="#757575" points="1030.5,-505.29 1041.09,-504.968 1032.61,-498.615 1030.5,-505.29"/>
</g>
<!-- scripts/LoginController.ts&#45;&gt;API/LoginService.ts -->
<g id="edge30" class="edge"><title>scripts/LoginController.ts&#45;&gt;API/LoginService.ts</title>
<path fill="none" stroke="#757575" d="M146.341,-423.013C179.2,-468.312 298.477,-632.152 310,-639.5 330.463,-652.549 355.381,-660.359 378.961,-665.008"/>
<polygon fill="#757575" stroke="#757575" points="378.505,-668.482 388.968,-666.813 379.748,-661.593 378.505,-668.482"/>
</g>
<!-- scripts/LoginController.ts&#45;&gt;API/PangleAdManager.ts -->
<g id="edge31" class="edge"><title>scripts/LoginController.ts&#45;&gt;API/PangleAdManager.ts</title>
<path fill="none" stroke="#757575" d="M147.226,-399.693C170.646,-370.809 235.828,-297.016 310,-270.5 686.654,-135.847 813.78,-215.636 1210,-270.5 1239.34,-274.562 1271.42,-283.645 1296.06,-291.671"/>
<polygon fill="#757575" stroke="#757575" points="1295.2,-295.074 1305.79,-294.912 1297.41,-288.432 1295.2,-295.074"/>
</g>
<!-- scripts/LoginController.ts&#45;&gt;API/WeChatLogin.ts -->
<g id="edge32" class="edge"><title>scripts/LoginController.ts&#45;&gt;API/WeChatLogin.ts</title>
<path fill="none" stroke="#757575" d="M198.54,-423.032C291.962,-437.823 474.709,-454.637 611,-391.5 632.404,-381.585 626.182,-363.593 647,-352.5 661.327,-344.865 677.737,-339.937 693.942,-336.799"/>
<polygon fill="#757575" stroke="#757575" points="694.724,-340.216 703.984,-335.068 693.535,-333.318 694.724,-340.216"/>
</g>
<!-- scripts/LoginController.ts&#45;&gt;scripts/AgreementDialogController.ts -->
<g id="edge33" class="edge"><title>scripts/LoginController.ts&#45;&gt;scripts/AgreementDialogController.ts</title>
<path fill="none" stroke="#757575" d="M140.743,-399.741C152.139,-353.774 200.367,-185.16 310,-111.5 315.013,-108.132 320.336,-105.209 325.872,-102.677"/>
<polygon fill="#757575" stroke="#757575" points="327.452,-105.812 335.374,-98.7766 324.794,-99.3359 327.452,-105.812"/>
</g>
<!-- scripts/LoginController.ts&#45;&gt;scripts/GameProgressManager.ts -->
<g id="edge34" class="edge"><title>scripts/LoginController.ts&#45;&gt;scripts/GameProgressManager.ts</title>
<path fill="none" stroke="#757575" d="M164.861,-399.935C198.254,-386.038 257.29,-363.03 310,-350.5 327.349,-346.376 538.605,-320.336 670.646,-304.259"/>
<polygon fill="#757575" stroke="#757575" points="671.296,-307.706 680.8,-303.023 670.451,-300.757 671.296,-307.706"/>
</g>
<!-- scripts/任务中心/OnlineTimeManager.ts -->
<g id="node21" class="node"><title>scripts/任务中心/OnlineTimeManager.ts</title>
<path fill="none" stroke="#cfffac" d="M899.333,-583C899.333,-583 654.667,-583 654.667,-583 650.833,-583 647,-579.167 647,-575.333 647,-575.333 647,-567.667 647,-567.667 647,-563.833 650.833,-560 654.667,-560 654.667,-560 899.333,-560 899.333,-560 903.167,-560 907,-563.833 907,-567.667 907,-567.667 907,-575.333 907,-575.333 907,-579.167 903.167,-583 899.333,-583"/>
<text text-anchor="middle" x="777" y="-567.8" font-family="Arial" font-size="14.00" fill="#cfffac">scripts/任务中心/OnlineTimeManager.ts</text>
</g>
<!-- scripts/LoginController.ts&#45;&gt;scripts/任务中心/OnlineTimeManager.ts -->
<g id="edge35" class="edge"><title>scripts/LoginController.ts&#45;&gt;scripts/任务中心/OnlineTimeManager.ts</title>
<path fill="none" stroke="#757575" d="M152.579,-423.181C180.968,-445.224 246.463,-492.692 310,-514.5 341.618,-525.353 524.091,-545.705 651.084,-558.924"/>
<polygon fill="#757575" stroke="#757575" points="650.967,-562.43 661.275,-559.982 651.69,-555.468 650.967,-562.43"/>
</g>
<!-- scripts/MinePageUIController.ts -->
<g id="node22" class="node"><title>scripts/MinePageUIController.ts</title>
<path fill="none" stroke="#c6c5fe" d="M561.333,-506C561.333,-506 359.667,-506 359.667,-506 355.833,-506 352,-502.167 352,-498.333 352,-498.333 352,-490.667 352,-490.667 352,-486.833 355.833,-483 359.667,-483 359.667,-483 561.333,-483 561.333,-483 565.167,-483 569,-486.833 569,-490.667 569,-490.667 569,-498.333 569,-498.333 569,-502.167 565.167,-506 561.333,-506"/>
<text text-anchor="middle" x="460.5" y="-490.8" font-family="Arial" font-size="14.00" fill="#c6c5fe">scripts/MinePageUIController.ts</text>
</g>
<!-- scripts/MinePageUIController.ts&#45;&gt;API/ApiConfig.ts -->
<g id="edge36" class="edge"><title>scripts/MinePageUIController.ts&#45;&gt;API/ApiConfig.ts</title>
<path fill="none" stroke="#757575" d="M569.294,-505.843C594.747,-508.115 621.808,-510.201 647,-511.5 773.193,-518.008 920.555,-518.082 1005.45,-517.394"/>
<polygon fill="#757575" stroke="#757575" points="1005.52,-520.893 1015.49,-517.306 1005.46,-513.894 1005.52,-520.893"/>
</g>
<!-- scripts/TreasureGuideUI.ts -->
<g id="node23" class="node"><title>scripts/TreasureGuideUI.ts</title>
<path fill="none" stroke="#c6c5fe" d="M862.833,-503C862.833,-503 691.167,-503 691.167,-503 687.333,-503 683.5,-499.167 683.5,-495.333 683.5,-495.333 683.5,-487.667 683.5,-487.667 683.5,-483.833 687.333,-480 691.167,-480 691.167,-480 862.833,-480 862.833,-480 866.667,-480 870.5,-483.833 870.5,-487.667 870.5,-487.667 870.5,-495.333 870.5,-495.333 870.5,-499.167 866.667,-503 862.833,-503"/>
<text text-anchor="middle" x="777" y="-487.8" font-family="Arial" font-size="14.00" fill="#c6c5fe">scripts/TreasureGuideUI.ts</text>
</g>
<!-- scripts/MinePageUIController.ts&#45;&gt;scripts/TreasureGuideUI.ts -->
<g id="edge37" class="edge"><title>scripts/MinePageUIController.ts&#45;&gt;scripts/TreasureGuideUI.ts</title>
<path fill="none" stroke="#757575" d="M569.293,-493.472C602.892,-493.151 639.844,-492.799 673.099,-492.482"/>
<polygon fill="#757575" stroke="#757575" points="673.327,-495.98 683.293,-492.384 673.26,-488.98 673.327,-495.98"/>
</g>
<!-- scripts/TreasureGuideUI.ts&#45;&gt;API/ApiConfig.ts -->
<g id="edge38" class="edge"><title>scripts/TreasureGuideUI.ts&#45;&gt;API/ApiConfig.ts</title>
<path fill="none" stroke="#757575" d="M870.5,-499.273C914.057,-502.933 965.16,-507.228 1005.45,-510.613"/>
<polygon fill="#757575" stroke="#757575" points="1005.19,-514.104 1015.44,-511.453 1005.77,-507.128 1005.19,-514.104"/>
</g>
<!-- scripts/MultiplierSelector.ts -->
<g id="node24" class="node"><title>scripts/MultiplierSelector.ts</title>
<path fill="none" stroke="#cfffac" d="M222.333,-686C222.333,-686 51.6667,-686 51.6667,-686 47.8333,-686 44,-682.167 44,-678.333 44,-678.333 44,-670.667 44,-670.667 44,-666.833 47.8333,-663 51.6667,-663 51.6667,-663 222.333,-663 222.333,-663 226.167,-663 230,-666.833 230,-670.667 230,-670.667 230,-678.333 230,-678.333 230,-682.167 226.167,-686 222.333,-686"/>
<text text-anchor="middle" x="137" y="-670.8" font-family="Arial" font-size="14.00" fill="#cfffac">scripts/MultiplierSelector.ts</text>
</g>
<!-- scripts/PrivacyPolicyViewer.ts -->
<g id="node25" class="node"><title>scripts/PrivacyPolicyViewer.ts</title>
<path fill="none" stroke="#cfffac" d="M231.833,-755C231.833,-755 42.1667,-755 42.1667,-755 38.3333,-755 34.5,-751.167 34.5,-747.333 34.5,-747.333 34.5,-739.667 34.5,-739.667 34.5,-735.833 38.3333,-732 42.1667,-732 42.1667,-732 231.833,-732 231.833,-732 235.667,-732 239.5,-735.833 239.5,-739.667 239.5,-739.667 239.5,-747.333 239.5,-747.333 239.5,-751.167 235.667,-755 231.833,-755"/>
<text text-anchor="middle" x="137" y="-739.8" font-family="Arial" font-size="14.00" fill="#cfffac">scripts/PrivacyPolicyViewer.ts</text>
</g>
<!-- scripts/PublicNoticeUIController.ts -->
<g id="node26" class="node"><title>scripts/PublicNoticeUIController.ts</title>
<path fill="none" stroke="#cfffac" d="M245.833,-851C245.833,-851 28.1667,-851 28.1667,-851 24.3333,-851 20.5,-847.167 20.5,-843.333 20.5,-843.333 20.5,-835.667 20.5,-835.667 20.5,-831.833 24.3333,-828 28.1667,-828 28.1667,-828 245.833,-828 245.833,-828 249.667,-828 253.5,-831.833 253.5,-835.667 253.5,-835.667 253.5,-843.333 253.5,-843.333 253.5,-847.167 249.667,-851 245.833,-851"/>
<text text-anchor="middle" x="137" y="-835.8" font-family="Arial" font-size="14.00" fill="#cfffac">scripts/PublicNoticeUIController.ts</text>
</g>
<!-- scripts/任务中心/SignInCalendarController.ts -->
<g id="node27" class="node"><title>scripts/任务中心/SignInCalendarController.ts</title>
<path fill="none" stroke="#c6c5fe" d="M598.333,-631C598.333,-631 322.667,-631 322.667,-631 318.833,-631 315,-627.167 315,-623.333 315,-623.333 315,-615.667 315,-615.667 315,-611.833 318.833,-608 322.667,-608 322.667,-608 598.333,-608 598.333,-608 602.167,-608 606,-611.833 606,-615.667 606,-615.667 606,-623.333 606,-623.333 606,-627.167 602.167,-631 598.333,-631"/>
<text text-anchor="middle" x="460.5" y="-615.8" font-family="Arial" font-size="14.00" fill="#c6c5fe">scripts/任务中心/SignInCalendarController.ts</text>
</g>
<!-- scripts/任务中心/SignInService.ts -->
<g id="node28" class="node"><title>scripts/任务中心/SignInService.ts</title>
<path fill="none" stroke="#c6c5fe" d="M879.833,-624C879.833,-624 674.167,-624 674.167,-624 670.333,-624 666.5,-620.167 666.5,-616.333 666.5,-616.333 666.5,-608.667 666.5,-608.667 666.5,-604.833 670.333,-601 674.167,-601 674.167,-601 879.833,-601 879.833,-601 883.667,-601 887.5,-604.833 887.5,-608.667 887.5,-608.667 887.5,-616.333 887.5,-616.333 887.5,-620.167 883.667,-624 879.833,-624"/>
<text text-anchor="middle" x="777" y="-608.8" font-family="Arial" font-size="14.00" fill="#c6c5fe">scripts/任务中心/SignInService.ts</text>
</g>
<!-- scripts/任务中心/SignInCalendarController.ts&#45;&gt;scripts/任务中心/SignInService.ts -->
<g id="edge39" class="edge"><title>scripts/任务中心/SignInCalendarController.ts&#45;&gt;scripts/任务中心/SignInService.ts</title>
<path fill="none" stroke="#757575" d="M606.323,-616.277C623.011,-615.905 639.887,-615.53 656.192,-615.167"/>
<polygon fill="#757575" stroke="#757575" points="656.345,-618.664 666.264,-614.942 656.189,-611.666 656.345,-618.664"/>
</g>
<!-- scripts/任务中心/SignInService.ts&#45;&gt;API/ApiConfig.ts -->
<g id="edge40" class="edge"><title>scripts/任务中心/SignInService.ts&#45;&gt;API/ApiConfig.ts</title>
<path fill="none" stroke="#757575" d="M867.85,-600.933C881.104,-598.347 894.498,-595.232 907,-591.5 957.267,-576.496 1012.2,-549.98 1045.25,-532.831"/>
<polygon fill="#757575" stroke="#757575" points="1047.14,-535.792 1054.37,-528.047 1043.89,-529.593 1047.14,-535.792"/>
</g>
<!-- scripts/任务中心/TaskCenterController.ts -->
<g id="node29" class="node"><title>scripts/任务中心/TaskCenterController.ts</title>
<path fill="none" stroke="#c6c5fe" d="M262.833,-631C262.833,-631 11.1667,-631 11.1667,-631 7.33333,-631 3.5,-627.167 3.5,-623.333 3.5,-623.333 3.5,-615.667 3.5,-615.667 3.5,-611.833 7.33333,-608 11.1667,-608 11.1667,-608 262.833,-608 262.833,-608 266.667,-608 270.5,-611.833 270.5,-615.667 270.5,-615.667 270.5,-623.333 270.5,-623.333 270.5,-627.167 266.667,-631 262.833,-631"/>
<text text-anchor="middle" x="137" y="-615.8" font-family="Arial" font-size="14.00" fill="#c6c5fe">scripts/任务中心/TaskCenterController.ts</text>
</g>
<!-- scripts/任务中心/TaskCenterController.ts&#45;&gt;scripts/任务中心/SignInCalendarController.ts -->
<g id="edge41" class="edge"><title>scripts/任务中心/TaskCenterController.ts&#45;&gt;scripts/任务中心/SignInCalendarController.ts</title>
<path fill="none" stroke="#757575" d="M270.623,-619.5C281.927,-619.5 293.423,-619.5 304.878,-619.5"/>
<polygon fill="#757575" stroke="#757575" points="304.927,-623 314.927,-619.5 304.927,-616 304.927,-623"/>
</g>
<!-- scripts/任务中心/TaskCenterPageController.ts -->
<g id="node30" class="node"><title>scripts/任务中心/TaskCenterPageController.ts</title>
<path fill="none" stroke="#c6c5fe" d="M603.333,-590C603.333,-590 317.667,-590 317.667,-590 313.833,-590 310,-586.167 310,-582.333 310,-582.333 310,-574.667 310,-574.667 310,-570.833 313.833,-567 317.667,-567 317.667,-567 603.333,-567 603.333,-567 607.167,-567 611,-570.833 611,-574.667 611,-574.667 611,-582.333 611,-582.333 611,-586.167 607.167,-590 603.333,-590"/>
<text text-anchor="middle" x="460.5" y="-574.8" font-family="Arial" font-size="14.00" fill="#c6c5fe">scripts/任务中心/TaskCenterPageController.ts</text>
</g>
<!-- scripts/任务中心/TaskCenterController.ts&#45;&gt;scripts/任务中心/TaskCenterPageController.ts -->
<g id="edge42" class="edge"><title>scripts/任务中心/TaskCenterController.ts&#45;&gt;scripts/任务中心/TaskCenterPageController.ts</title>
<path fill="none" stroke="#757575" d="M228.411,-607.97C269.161,-602.773 317.424,-596.619 359.276,-591.281"/>
<polygon fill="#757575" stroke="#757575" points="359.734,-594.751 369.211,-590.014 358.848,-587.808 359.734,-594.751"/>
</g>
<!-- scripts/按钮显现隐藏/PopupButtonBinder.ts -->
<g id="node31" class="node"><title>scripts/按钮显现隐藏/PopupButtonBinder.ts</title>
<path fill="none" stroke="#cfffac" d="M593.333,-800C593.333,-800 327.667,-800 327.667,-800 323.833,-800 320,-796.167 320,-792.333 320,-792.333 320,-784.667 320,-784.667 320,-780.833 323.833,-777 327.667,-777 327.667,-777 593.333,-777 593.333,-777 597.167,-777 601,-780.833 601,-784.667 601,-784.667 601,-792.333 601,-792.333 601,-796.167 597.167,-800 593.333,-800"/>
<text text-anchor="middle" x="460.5" y="-784.8" font-family="Arial" font-size="14.00" fill="#cfffac">scripts/按钮显现隐藏/PopupButtonBinder.ts</text>
</g>
<!-- scripts/任务中心/TaskCenterController.ts&#45;&gt;scripts/按钮显现隐藏/PopupButtonBinder.ts -->
<g id="edge43" class="edge"><title>scripts/任务中心/TaskCenterController.ts&#45;&gt;scripts/按钮显现隐藏/PopupButtonBinder.ts</title>
<path fill="none" stroke="#757575" d="M236.041,-631.048C250.025,-636.19 263.276,-643.41 274,-653.5 312.697,-689.909 269.438,-733.18 310,-767.5 311.576,-768.833 313.196,-770.104 314.856,-771.316"/>
<polygon fill="#757575" stroke="#757575" points="313.177,-774.398 323.475,-776.888 316.978,-768.519 313.177,-774.398"/>
</g>
<!-- scripts/任务中心/TaskCenterPageController.ts&#45;&gt;scripts/任务中心/OnlineTimeManager.ts -->
<g id="edge44" class="edge"><title>scripts/任务中心/TaskCenterPageController.ts&#45;&gt;scripts/任务中心/OnlineTimeManager.ts</title>
<path fill="none" stroke="#757575" d="M611.381,-575.164C619.817,-574.976 628.281,-574.788 636.676,-574.601"/>
<polygon fill="#757575" stroke="#757575" points="636.956,-578.096 646.875,-574.374 636.8,-571.097 636.956,-578.096"/>
</g>
<!-- scripts/任务中心/TaskCenterPageController.ts&#45;&gt;scripts/任务中心/SignInService.ts -->
<g id="edge45" class="edge"><title>scripts/任务中心/TaskCenterPageController.ts&#45;&gt;scripts/任务中心/SignInService.ts</title>
<path fill="none" stroke="#757575" d="M567.975,-590.011C597.354,-593.187 629.382,-596.649 659.306,-599.884"/>
<polygon fill="#757575" stroke="#757575" points="659.049,-603.377 669.367,-600.972 659.801,-596.417 659.049,-603.377"/>
</g>
<!-- scripts/场景跳转/SceneNavigator.ts -->
<g id="node32" class="node"><title>scripts/场景跳转/SceneNavigator.ts</title>
<path fill="none" stroke="#c6c5fe" d="M569.333,-303C569.333,-303 351.667,-303 351.667,-303 347.833,-303 344,-299.167 344,-295.333 344,-295.333 344,-287.667 344,-287.667 344,-283.833 347.833,-280 351.667,-280 351.667,-280 569.333,-280 569.333,-280 573.167,-280 577,-283.833 577,-287.667 577,-287.667 577,-295.333 577,-295.333 577,-299.167 573.167,-303 569.333,-303"/>
<text text-anchor="middle" x="460.5" y="-287.8" font-family="Arial" font-size="14.00" fill="#c6c5fe">scripts/场景跳转/SceneNavigator.ts</text>
</g>
<!-- scripts/场景跳转/SceneNavigator.ts&#45;&gt;scripts/GameProgressManager.ts -->
<g id="edge46" class="edge"><title>scripts/场景跳转/SceneNavigator.ts&#45;&gt;scripts/GameProgressManager.ts</title>
<path fill="none" stroke="#757575" d="M577.268,-291.5C601.513,-291.5 627.175,-291.5 651.715,-291.5"/>
<polygon fill="#757575" stroke="#757575" points="651.788,-295 661.788,-291.5 651.788,-288 651.788,-295"/>
</g>
<!-- scripts/抽奖主脚本/LuckyDraw.ts -->
<g id="node33" class="node"><title>scripts/抽奖主脚本/LuckyDraw.ts</title>
<path fill="none" stroke="#c6c5fe" d="M559.833,-383C559.833,-383 361.167,-383 361.167,-383 357.333,-383 353.5,-379.167 353.5,-375.333 353.5,-375.333 353.5,-367.667 353.5,-367.667 353.5,-363.833 357.333,-360 361.167,-360 361.167,-360 559.833,-360 559.833,-360 563.667,-360 567.5,-363.833 567.5,-367.667 567.5,-367.667 567.5,-375.333 567.5,-375.333 567.5,-379.167 563.667,-383 559.833,-383"/>
<text text-anchor="middle" x="460.5" y="-367.8" font-family="Arial" font-size="14.00" fill="#c6c5fe">scripts/抽奖主脚本/LuckyDraw.ts</text>
</g>
<!-- scripts/抽奖主脚本/LuckyDraw.ts&#45;&gt;API/ApiConfig.ts -->
<g id="edge47" class="edge"><title>scripts/抽奖主脚本/LuckyDraw.ts&#45;&gt;API/ApiConfig.ts</title>
<path fill="none" stroke="#757575" d="M562.931,-383.053C673.953,-396.313 844.491,-418.659 907,-437.5 958.383,-452.987 1014.03,-481.636 1046.77,-499.846"/>
<polygon fill="#757575" stroke="#757575" points="1045.34,-503.057 1055.77,-504.911 1048.77,-496.957 1045.34,-503.057"/>
</g>
<!-- scripts/抽奖主脚本/LuckyDraw.ts&#45;&gt;scripts/GameProgressManager.ts -->
<g id="edge48" class="edge"><title>scripts/抽奖主脚本/LuckyDraw.ts&#45;&gt;scripts/GameProgressManager.ts</title>
<path fill="none" stroke="#757575" d="M567.729,-360.988C582.716,-357.248 597.575,-352.227 611,-345.5 630.676,-335.641 627.234,-321.178 647,-311.5 650.778,-309.65 654.687,-307.963 658.687,-306.425"/>
<polygon fill="#757575" stroke="#757575" points="659.889,-309.713 668.169,-303.102 657.574,-303.107 659.889,-309.713"/>
</g>
<!-- scripts/按钮显现隐藏/PopupController.ts -->
<g id="node34" class="node"><title>scripts/按钮显现隐藏/PopupController.ts</title>
<path fill="none" stroke="#c6c5fe" d="M259.833,-899C259.833,-899 14.1667,-899 14.1667,-899 10.3333,-899 6.5,-895.167 6.5,-891.333 6.5,-891.333 6.5,-883.667 6.5,-883.667 6.5,-879.833 10.3333,-876 14.1667,-876 14.1667,-876 259.833,-876 259.833,-876 263.667,-876 267.5,-879.833 267.5,-883.667 267.5,-883.667 267.5,-891.333 267.5,-891.333 267.5,-895.167 263.667,-899 259.833,-899"/>
<text text-anchor="middle" x="137" y="-883.8" font-family="Arial" font-size="14.00" fill="#c6c5fe">scripts/按钮显现隐藏/PopupController.ts</text>
</g>
<!-- scripts/按钮显现隐藏/PopupManager.ts -->
<g id="node35" class="node"><title>scripts/按钮显现隐藏/PopupManager.ts</title>
<path fill="none" stroke="#cfffac" d="M579.833,-899C579.833,-899 341.167,-899 341.167,-899 337.333,-899 333.5,-895.167 333.5,-891.333 333.5,-891.333 333.5,-883.667 333.5,-883.667 333.5,-879.833 337.333,-876 341.167,-876 341.167,-876 579.833,-876 579.833,-876 583.667,-876 587.5,-879.833 587.5,-883.667 587.5,-883.667 587.5,-891.333 587.5,-891.333 587.5,-895.167 583.667,-899 579.833,-899"/>
<text text-anchor="middle" x="460.5" y="-883.8" font-family="Arial" font-size="14.00" fill="#cfffac">scripts/按钮显现隐藏/PopupManager.ts</text>
</g>
<!-- scripts/按钮显现隐藏/PopupController.ts&#45;&gt;scripts/按钮显现隐藏/PopupManager.ts -->
<g id="edge49" class="edge"><title>scripts/按钮显现隐藏/PopupController.ts&#45;&gt;scripts/按钮显现隐藏/PopupManager.ts</title>
<path fill="none" stroke="#757575" d="M267.84,-887.5C286.073,-887.5 304.858,-887.5 323.207,-887.5"/>
<polygon fill="#757575" stroke="#757575" points="323.35,-891 333.35,-887.5 323.35,-884 323.35,-891"/>
</g>
<!-- scripts/按钮显现隐藏/PopupHider.ts -->
<g id="node36" class="node"><title>scripts/按钮显现隐藏/PopupHider.ts</title>
<path fill="none" stroke="#cfffac" d="M245.833,-940C245.833,-940 28.1667,-940 28.1667,-940 24.3333,-940 20.5,-936.167 20.5,-932.333 20.5,-932.333 20.5,-924.667 20.5,-924.667 20.5,-920.833 24.3333,-917 28.1667,-917 28.1667,-917 245.833,-917 245.833,-917 249.667,-917 253.5,-920.833 253.5,-924.667 253.5,-924.667 253.5,-932.333 253.5,-932.333 253.5,-936.167 249.667,-940 245.833,-940"/>
<text text-anchor="middle" x="137" y="-924.8" font-family="Arial" font-size="14.00" fill="#cfffac">scripts/按钮显现隐藏/PopupHider.ts</text>
</g>
<!-- scripts/按钮显现隐藏/PopupHiderButton.ts -->
<g id="node37" class="node"><title>scripts/按钮显现隐藏/PopupHiderButton.ts</title>
<path fill="none" stroke="#cfffac" d="M266.333,-981C266.333,-981 7.66667,-981 7.66667,-981 3.83333,-981 0,-977.167 0,-973.333 0,-973.333 0,-965.667 0,-965.667 0,-961.833 3.83333,-958 7.66667,-958 7.66667,-958 266.333,-958 266.333,-958 270.167,-958 274,-961.833 274,-965.667 274,-965.667 274,-973.333 274,-973.333 274,-977.167 270.167,-981 266.333,-981"/>
<text text-anchor="middle" x="137" y="-965.8" font-family="Arial" font-size="14.00" fill="#cfffac">scripts/按钮显现隐藏/PopupHiderButton.ts</text>
</g>
<!-- scripts/节点生成/GameUIManager.ts -->
<g id="node38" class="node"><title>scripts/节点生成/GameUIManager.ts</title>
<path fill="none" stroke="#cfffac" d="M249.333,-1022C249.333,-1022 24.6667,-1022 24.6667,-1022 20.8333,-1022 17,-1018.17 17,-1014.33 17,-1014.33 17,-1006.67 17,-1006.67 17,-1002.83 20.8333,-999 24.6667,-999 24.6667,-999 249.333,-999 249.333,-999 253.167,-999 257,-1002.83 257,-1006.67 257,-1006.67 257,-1014.33 257,-1014.33 257,-1018.17 253.167,-1022 249.333,-1022"/>
<text text-anchor="middle" x="137" y="-1006.8" font-family="Arial" font-size="14.00" fill="#cfffac">scripts/节点生成/GameUIManager.ts</text>
</g>
<!-- scripts/财神数量UI/ClinkEvent.ts -->
<g id="node39" class="node"><title>scripts/财神数量UI/ClinkEvent.ts</title>
<path fill="none" stroke="#cfffac" d="M235.833,-1063C235.833,-1063 38.1667,-1063 38.1667,-1063 34.3333,-1063 30.5,-1059.17 30.5,-1055.33 30.5,-1055.33 30.5,-1047.67 30.5,-1047.67 30.5,-1043.83 34.3333,-1040 38.1667,-1040 38.1667,-1040 235.833,-1040 235.833,-1040 239.667,-1040 243.5,-1043.83 243.5,-1047.67 243.5,-1047.67 243.5,-1055.33 243.5,-1055.33 243.5,-1059.17 239.667,-1063 235.833,-1063"/>
<text text-anchor="middle" x="137" y="-1047.8" font-family="Arial" font-size="14.00" fill="#cfffac">scripts/财神数量UI/ClinkEvent.ts</text>
</g>
<!-- scripts/音乐/AudioSettings.ts -->
<g id="node40" class="node"><title>scripts/音乐/AudioSettings.ts</title>
<path fill="none" stroke="#c6c5fe" d="M866.833,-185C866.833,-185 687.167,-185 687.167,-185 683.333,-185 679.5,-181.167 679.5,-177.333 679.5,-177.333 679.5,-169.667 679.5,-169.667 679.5,-165.833 683.333,-162 687.167,-162 687.167,-162 866.833,-162 866.833,-162 870.667,-162 874.5,-165.833 874.5,-169.667 874.5,-169.667 874.5,-177.333 874.5,-177.333 874.5,-181.167 870.667,-185 866.833,-185"/>
<text text-anchor="middle" x="777" y="-169.8" font-family="Arial" font-size="14.00" fill="#c6c5fe">scripts/音乐/AudioSettings.ts</text>
</g>
<!-- scripts/音乐/AudioSettings.ts&#45;&gt;scripts/音乐/AudioManager.ts -->
<g id="edge50" class="edge"><title>scripts/音乐/AudioSettings.ts&#45;&gt;scripts/音乐/AudioManager.ts</title>
<path fill="none" stroke="#757575" d="M874.59,-173.5C904.162,-173.5 936.883,-173.5 967.182,-173.5"/>
<polygon fill="#757575" stroke="#757575" points="967.356,-177 977.356,-173.5 967.356,-170 967.356,-177"/>
</g>
</g>
</svg>
