<?xml version="1.0" encoding="UTF-8" standalone="no"?>
<!DOCTYPE svg PUBLIC "-//W3C//DTD SVG 1.1//EN"
 "http://www.w3.org/Graphics/SVG/1.1/DTD/svg11.dtd">
<!-- Generated by graphviz version 2.38.0 (20140413.2041)
 -->
<!-- Title: G Pages: 1 -->
<svg width="1387pt" height="759pt"
 viewBox="0.00 0.00 1387.20 759.24" xmlns="http://www.w3.org/2000/svg" xmlns:xlink="http://www.w3.org/1999/xlink">
<g id="graph0" class="graph" transform="scale(1 1) rotate(0) translate(21.6 737.643)">
<title>G</title>
<polygon fill="#111111" stroke="none" points="-21.6,21.6 -21.6,-737.643 1365.6,-737.643 1365.6,21.6 -21.6,21.6"/>
<!-- API/ApiConfig.ts -->
<g id="node1" class="node"><title>API/ApiConfig.ts</title>
<path fill="none" stroke="#cfffac" d="M1304.83,-523.913C1304.83,-523.913 1198.17,-523.913 1198.17,-523.913 1194.33,-523.913 1190.5,-520.08 1190.5,-516.247 1190.5,-516.247 1190.5,-508.58 1190.5,-508.58 1190.5,-504.747 1194.33,-500.913 1198.17,-500.913 1198.17,-500.913 1304.83,-500.913 1304.83,-500.913 1308.67,-500.913 1312.5,-504.747 1312.5,-508.58 1312.5,-508.58 1312.5,-516.247 1312.5,-516.247 1312.5,-520.08 1308.67,-523.913 1304.83,-523.913"/>
<text text-anchor="middle" x="1251.5" y="-508.713" font-family="Arial" font-size="14.00" fill="#cfffac">API/ApiConfig.ts</text>
</g>
<!-- API/ApiConfigExample.ts -->
<g id="node2" class="node"><title>API/ApiConfigExample.ts</title>
<path fill="none" stroke="#c6c5fe" d="M1089.33,-463.913C1089.33,-463.913 926.667,-463.913 926.667,-463.913 922.833,-463.913 919,-460.08 919,-456.247 919,-456.247 919,-448.58 919,-448.58 919,-444.747 922.833,-440.913 926.667,-440.913 926.667,-440.913 1089.33,-440.913 1089.33,-440.913 1093.17,-440.913 1097,-444.747 1097,-448.58 1097,-448.58 1097,-456.247 1097,-456.247 1097,-460.08 1093.17,-463.913 1089.33,-463.913"/>
<text text-anchor="middle" x="1008" y="-448.713" font-family="Arial" font-size="14.00" fill="#c6c5fe">API/ApiConfigExample.ts</text>
</g>
<!-- API/ApiConfigExample.ts&#45;&gt;API/ApiConfig.ts -->
<g id="edge1" class="edge"><title>API/ApiConfigExample.ts&#45;&gt;API/ApiConfig.ts</title>
<path fill="none" stroke="#757575" d="M1061.31,-463.924C1080.72,-468.306 1102.9,-473.443 1123,-478.413 1147.99,-484.593 1175.61,-491.899 1198.73,-498.151"/>
<polygon fill="#757575" stroke="#757575" points="1198.11,-501.609 1208.68,-500.85 1199.94,-494.853 1198.11,-501.609"/>
</g>
<!-- API/DeviceInfoCollector.ts -->
<g id="node3" class="node"><title>API/DeviceInfoCollector.ts</title>
<path fill="none" stroke="#cfffac" d="M1336.33,-285.913C1336.33,-285.913 1166.67,-285.913 1166.67,-285.913 1162.83,-285.913 1159,-282.08 1159,-278.247 1159,-278.247 1159,-270.58 1159,-270.58 1159,-266.747 1162.83,-262.913 1166.67,-262.913 1166.67,-262.913 1336.33,-262.913 1336.33,-262.913 1340.17,-262.913 1344,-266.747 1344,-270.58 1344,-270.58 1344,-278.247 1344,-278.247 1344,-282.08 1340.17,-285.913 1336.33,-285.913"/>
<text text-anchor="middle" x="1251.5" y="-270.713" font-family="Arial" font-size="14.00" fill="#cfffac">API/DeviceInfoCollector.ts</text>
</g>
<!-- API/DeviceInfoExample.ts -->
<g id="node4" class="node"><title>API/DeviceInfoExample.ts</title>
<path fill="none" stroke="#c6c5fe" d="M1092.33,-142.913C1092.33,-142.913 923.667,-142.913 923.667,-142.913 919.833,-142.913 916,-139.08 916,-135.247 916,-135.247 916,-127.58 916,-127.58 916,-123.747 919.833,-119.913 923.667,-119.913 923.667,-119.913 1092.33,-119.913 1092.33,-119.913 1096.17,-119.913 1100,-123.747 1100,-127.58 1100,-127.58 1100,-135.247 1100,-135.247 1100,-139.08 1096.17,-142.913 1092.33,-142.913"/>
<text text-anchor="middle" x="1008" y="-127.713" font-family="Arial" font-size="14.00" fill="#c6c5fe">API/DeviceInfoExample.ts</text>
</g>
<!-- API/DeviceInfoExample.ts&#45;&gt;API/DeviceInfoCollector.ts -->
<g id="edge2" class="edge"><title>API/DeviceInfoExample.ts&#45;&gt;API/DeviceInfoCollector.ts</title>
<path fill="none" stroke="#757575" d="M1100.22,-142.318C1108.13,-144.776 1115.84,-147.769 1123,-151.413 1171.98,-176.327 1214.69,-226.376 1236.03,-254.341"/>
<polygon fill="#757575" stroke="#757575" points="1233.4,-256.668 1242.19,-262.585 1239.01,-252.479 1233.4,-256.668"/>
</g>
<!-- API/EncryptedApiClient.ts -->
<g id="node5" class="node"><title>API/EncryptedApiClient.ts</title>
<path fill="none" stroke="#c6c5fe" d="M1090.83,-265.913C1090.83,-265.913 925.167,-265.913 925.167,-265.913 921.333,-265.913 917.5,-262.08 917.5,-258.247 917.5,-258.247 917.5,-250.58 917.5,-250.58 917.5,-246.747 921.333,-242.913 925.167,-242.913 925.167,-242.913 1090.83,-242.913 1090.83,-242.913 1094.67,-242.913 1098.5,-246.747 1098.5,-250.58 1098.5,-250.58 1098.5,-258.247 1098.5,-258.247 1098.5,-262.08 1094.67,-265.913 1090.83,-265.913"/>
<text text-anchor="middle" x="1008" y="-250.713" font-family="Arial" font-size="14.00" fill="#c6c5fe">API/EncryptedApiClient.ts</text>
</g>
<!-- API/EncryptedApiClient.ts&#45;&gt;API/ApiConfig.ts -->
<g id="edge3" class="edge"><title>API/EncryptedApiClient.ts&#45;&gt;API/ApiConfig.ts</title>
<path fill="none" stroke="#757575" d="M1038.15,-266.085C1062.78,-276.973 1097.93,-295.04 1123,-318.413 1179.28,-370.894 1222.54,-453.01 1240.89,-491.36"/>
<polygon fill="#757575" stroke="#757575" points="1237.78,-492.978 1245.2,-500.54 1244.11,-490.001 1237.78,-492.978"/>
</g>
<!-- API/EncryptedApiClient.ts&#45;&gt;API/DeviceInfoCollector.ts -->
<g id="edge4" class="edge"><title>API/EncryptedApiClient.ts&#45;&gt;API/DeviceInfoCollector.ts</title>
<path fill="none" stroke="#757575" d="M1098.58,-261.832C1114.81,-263.176 1131.85,-264.587 1148.41,-265.958"/>
<polygon fill="#757575" stroke="#757575" points="1148.39,-269.469 1158.64,-266.806 1148.96,-262.492 1148.39,-269.469"/>
</g>
<!-- API/EncryptedApiExample.ts -->
<g id="node6" class="node"><title>API/EncryptedApiExample.ts</title>
<path fill="none" stroke="#c6c5fe" d="M824.333,-265.913C824.333,-265.913 639.667,-265.913 639.667,-265.913 635.833,-265.913 632,-262.08 632,-258.247 632,-258.247 632,-250.58 632,-250.58 632,-246.747 635.833,-242.913 639.667,-242.913 639.667,-242.913 824.333,-242.913 824.333,-242.913 828.167,-242.913 832,-246.747 832,-250.58 832,-250.58 832,-258.247 832,-258.247 832,-262.08 828.167,-265.913 824.333,-265.913"/>
<text text-anchor="middle" x="732" y="-250.713" font-family="Arial" font-size="14.00" fill="#c6c5fe">API/EncryptedApiExample.ts</text>
</g>
<!-- API/EncryptedApiExample.ts&#45;&gt;API/EncryptedApiClient.ts -->
<g id="edge5" class="edge"><title>API/EncryptedApiExample.ts&#45;&gt;API/EncryptedApiClient.ts</title>
<path fill="none" stroke="#757575" d="M832.308,-254.413C856.563,-254.413 882.528,-254.413 906.824,-254.413"/>
<polygon fill="#757575" stroke="#757575" points="907.124,-257.913 917.124,-254.413 907.124,-250.913 907.124,-257.913"/>
</g>
<!-- API/LoginService.ts -->
<g id="node7" class="node"><title>API/LoginService.ts</title>
<path fill="none" stroke="#c6c5fe" d="M795.833,-306.913C795.833,-306.913 668.167,-306.913 668.167,-306.913 664.333,-306.913 660.5,-303.08 660.5,-299.247 660.5,-299.247 660.5,-291.58 660.5,-291.58 660.5,-287.747 664.333,-283.913 668.167,-283.913 668.167,-283.913 795.833,-283.913 795.833,-283.913 799.667,-283.913 803.5,-287.747 803.5,-291.58 803.5,-291.58 803.5,-299.247 803.5,-299.247 803.5,-303.08 799.667,-306.913 795.833,-306.913"/>
<text text-anchor="middle" x="732" y="-291.713" font-family="Arial" font-size="14.00" fill="#c6c5fe">API/LoginService.ts</text>
</g>
<!-- API/LoginService.ts&#45;&gt;API/ApiConfig.ts -->
<g id="edge6" class="edge"><title>API/LoginService.ts&#45;&gt;API/ApiConfig.ts</title>
<path fill="none" stroke="#757575" d="M803.627,-299.309C900.873,-305.72 1070,-320.941 1123,-351.413 1180.95,-384.734 1222.41,-455.607 1240.45,-491.153"/>
<polygon fill="#757575" stroke="#757575" points="1237.53,-493.158 1245.1,-500.577 1243.81,-490.061 1237.53,-493.158"/>
</g>
<!-- API/LoginService.ts&#45;&gt;API/DeviceInfoCollector.ts -->
<g id="edge7" class="edge"><title>API/LoginService.ts&#45;&gt;API/DeviceInfoCollector.ts</title>
<path fill="none" stroke="#757575" d="M803.601,-292.548C892.736,-288.931 1046.72,-282.683 1148.6,-278.549"/>
<polygon fill="#757575" stroke="#757575" points="1148.75,-282.045 1158.6,-278.143 1148.46,-275.051 1148.75,-282.045"/>
</g>
<!-- API/LoginService.ts&#45;&gt;API/EncryptedApiClient.ts -->
<g id="edge8" class="edge"><title>API/LoginService.ts&#45;&gt;API/EncryptedApiClient.ts</title>
<path fill="none" stroke="#757575" d="M803.562,-284.855C839.077,-279.54 882.453,-273.05 920.015,-267.429"/>
<polygon fill="#757575" stroke="#757575" points="920.563,-270.886 929.935,-265.945 919.527,-263.963 920.563,-270.886"/>
</g>
<!-- API/LoginServiceExample.ts -->
<g id="node8" class="node"><title>API/LoginServiceExample.ts</title>
<path fill="none" stroke="#c6c5fe" d="M535.333,-306.913C535.333,-306.913 352.667,-306.913 352.667,-306.913 348.833,-306.913 345,-303.08 345,-299.247 345,-299.247 345,-291.58 345,-291.58 345,-287.747 348.833,-283.913 352.667,-283.913 352.667,-283.913 535.333,-283.913 535.333,-283.913 539.167,-283.913 543,-287.747 543,-291.58 543,-291.58 543,-299.247 543,-299.247 543,-303.08 539.167,-306.913 535.333,-306.913"/>
<text text-anchor="middle" x="444" y="-291.713" font-family="Arial" font-size="14.00" fill="#c6c5fe">API/LoginServiceExample.ts</text>
</g>
<!-- API/LoginServiceExample.ts&#45;&gt;API/LoginService.ts -->
<g id="edge9" class="edge"><title>API/LoginServiceExample.ts&#45;&gt;API/LoginService.ts</title>
<path fill="none" stroke="#757575" d="M543.025,-295.413C577.902,-295.413 616.753,-295.413 650.04,-295.413"/>
<polygon fill="#757575" stroke="#757575" points="650.181,-298.913 660.181,-295.413 650.181,-291.913 650.181,-298.913"/>
</g>
<!-- API/PangleAdExample.ts -->
<g id="node9" class="node"><title>API/PangleAdExample.ts</title>
<path fill="none" stroke="#c6c5fe" d="M524.833,-224.913C524.833,-224.913 363.167,-224.913 363.167,-224.913 359.333,-224.913 355.5,-221.08 355.5,-217.247 355.5,-217.247 355.5,-209.58 355.5,-209.58 355.5,-205.747 359.333,-201.913 363.167,-201.913 363.167,-201.913 524.833,-201.913 524.833,-201.913 528.667,-201.913 532.5,-205.747 532.5,-209.58 532.5,-209.58 532.5,-217.247 532.5,-217.247 532.5,-221.08 528.667,-224.913 524.833,-224.913"/>
<text text-anchor="middle" x="444" y="-209.713" font-family="Arial" font-size="14.00" fill="#c6c5fe">API/PangleAdExample.ts</text>
</g>
<!-- API/PangleAdManager.ts -->
<g id="node10" class="node"><title>API/PangleAdManager.ts</title>
<path fill="none" stroke="#cfffac" d="M812.333,-224.913C812.333,-224.913 651.667,-224.913 651.667,-224.913 647.833,-224.913 644,-221.08 644,-217.247 644,-217.247 644,-209.58 644,-209.58 644,-205.747 647.833,-201.913 651.667,-201.913 651.667,-201.913 812.333,-201.913 812.333,-201.913 816.167,-201.913 820,-205.747 820,-209.58 820,-209.58 820,-217.247 820,-217.247 820,-221.08 816.167,-224.913 812.333,-224.913"/>
<text text-anchor="middle" x="732" y="-209.713" font-family="Arial" font-size="14.00" fill="#cfffac">API/PangleAdManager.ts</text>
</g>
<!-- API/PangleAdExample.ts&#45;&gt;API/PangleAdManager.ts -->
<g id="edge10" class="edge"><title>API/PangleAdExample.ts&#45;&gt;API/PangleAdManager.ts</title>
<path fill="none" stroke="#757575" d="M532.753,-213.413C564.747,-213.413 601.1,-213.413 633.862,-213.413"/>
<polygon fill="#757575" stroke="#757575" points="633.905,-216.913 643.905,-213.413 633.905,-209.913 633.905,-216.913"/>
</g>
<!-- API/RiskDetectionExample.ts -->
<g id="node11" class="node"><title>API/RiskDetectionExample.ts</title>
<path fill="none" stroke="#c6c5fe" d="M537.833,-50.9134C537.833,-50.9134 350.167,-50.9134 350.167,-50.9134 346.333,-50.9134 342.5,-47.08 342.5,-43.2467 342.5,-43.2467 342.5,-35.58 342.5,-35.58 342.5,-31.7467 346.333,-27.9134 350.167,-27.9134 350.167,-27.9134 537.833,-27.9134 537.833,-27.9134 541.667,-27.9134 545.5,-31.7467 545.5,-35.58 545.5,-35.58 545.5,-43.2467 545.5,-43.2467 545.5,-47.08 541.667,-50.9134 537.833,-50.9134"/>
<text text-anchor="middle" x="444" y="-35.7134" font-family="Arial" font-size="14.00" fill="#c6c5fe">API/RiskDetectionExample.ts</text>
</g>
<!-- API/RiskDetectionService.ts -->
<g id="node12" class="node"><title>API/RiskDetectionService.ts</title>
<path fill="none" stroke="#c6c5fe" d="M822.333,-61.9134C822.333,-61.9134 641.667,-61.9134 641.667,-61.9134 637.833,-61.9134 634,-58.08 634,-54.2467 634,-54.2467 634,-46.58 634,-46.58 634,-42.7467 637.833,-38.9134 641.667,-38.9134 641.667,-38.9134 822.333,-38.9134 822.333,-38.9134 826.167,-38.9134 830,-42.7467 830,-46.58 830,-46.58 830,-54.2467 830,-54.2467 830,-58.08 826.167,-61.9134 822.333,-61.9134"/>
<text text-anchor="middle" x="732" y="-46.7134" font-family="Arial" font-size="14.00" fill="#c6c5fe">API/RiskDetectionService.ts</text>
</g>
<!-- API/RiskDetectionExample.ts&#45;&gt;API/RiskDetectionService.ts -->
<g id="edge11" class="edge"><title>API/RiskDetectionExample.ts&#45;&gt;API/RiskDetectionService.ts</title>
<path fill="none" stroke="#757575" d="M545.833,-43.2916C571.105,-44.2635 598.306,-45.3097 623.872,-46.2931"/>
<polygon fill="#757575" stroke="#757575" points="623.831,-49.794 633.958,-46.681 624.1,-42.7992 623.831,-49.794"/>
</g>
<!-- API/RiskDetectionService.ts&#45;&gt;API/ApiConfig.ts -->
<g id="edge12" class="edge"><title>API/RiskDetectionService.ts&#45;&gt;API/ApiConfig.ts</title>
<path fill="none" stroke="#757575" d="M830.012,-41.7649C931.369,-34.9937 1081.34,-32.1012 1123,-69.4134 1160.72,-103.196 1145.1,-245.722 1159,-294.413 1180.41,-369.413 1220.45,-453.182 1239.66,-491.38"/>
<polygon fill="#757575" stroke="#757575" points="1236.64,-493.158 1244.29,-500.49 1242.88,-489.989 1236.64,-493.158"/>
</g>
<!-- API/RiskDetectionService.ts&#45;&gt;API/DeviceInfoCollector.ts -->
<g id="edge13" class="edge"><title>API/RiskDetectionService.ts&#45;&gt;API/DeviceInfoCollector.ts</title>
<path fill="none" stroke="#757575" d="M763.609,-38.8851C833.236,-14.7438 1006.45,33.3692 1123,-36.4134 1203.78,-84.7787 1236.29,-203.758 1246.54,-252.773"/>
<polygon fill="#757575" stroke="#757575" points="1243.17,-253.758 1248.55,-262.887 1250.04,-252.397 1243.17,-253.758"/>
</g>
<!-- API/RiskDetectionService.ts&#45;&gt;API/EncryptedApiClient.ts -->
<g id="edge14" class="edge"><title>API/RiskDetectionService.ts&#45;&gt;API/EncryptedApiClient.ts</title>
<path fill="none" stroke="#757575" d="M777.438,-61.9451C804.029,-71.0038 836.527,-86.2267 857,-110.413 893.801,-153.889 850.712,-195.254 893,-233.413 897.547,-237.516 902.623,-240.94 908.039,-243.789"/>
<polygon fill="#757575" stroke="#757575" points="906.888,-247.11 917.441,-248.058 909.783,-240.736 906.888,-247.11"/>
</g>
<!-- API/WeChatLogin.ts -->
<g id="node13" class="node"><title>API/WeChatLogin.ts</title>
<path fill="none" stroke="#c6c5fe" d="M1073.33,-664.913C1073.33,-664.913 942.667,-664.913 942.667,-664.913 938.833,-664.913 935,-661.08 935,-657.247 935,-657.247 935,-649.58 935,-649.58 935,-645.747 938.833,-641.913 942.667,-641.913 942.667,-641.913 1073.33,-641.913 1073.33,-641.913 1077.17,-641.913 1081,-645.747 1081,-649.58 1081,-649.58 1081,-657.247 1081,-657.247 1081,-661.08 1077.17,-664.913 1073.33,-664.913"/>
<text text-anchor="middle" x="1008" y="-649.713" font-family="Arial" font-size="14.00" fill="#c6c5fe">API/WeChatLogin.ts</text>
</g>
<!-- API/WeChatLogin.ts&#45;&gt;API/ApiConfig.ts -->
<g id="edge15" class="edge"><title>API/WeChatLogin.ts&#45;&gt;API/ApiConfig.ts</title>
<path fill="none" stroke="#757575" d="M1081.28,-646.54C1095.6,-643.419 1110.16,-638.913 1123,-632.413 1171.45,-607.883 1214.38,-559.144 1235.89,-531.935"/>
<polygon fill="#757575" stroke="#757575" points="1238.74,-533.964 1242.1,-523.915 1233.21,-529.678 1238.74,-533.964"/>
</g>
<!-- API/WeChatLoginExample.ts -->
<g id="node14" class="node"><title>API/WeChatLoginExample.ts</title>
<path fill="none" stroke="#c6c5fe" d="M825.333,-702.913C825.333,-702.913 638.667,-702.913 638.667,-702.913 634.833,-702.913 631,-699.08 631,-695.247 631,-695.247 631,-687.58 631,-687.58 631,-683.747 634.833,-679.913 638.667,-679.913 638.667,-679.913 825.333,-679.913 825.333,-679.913 829.167,-679.913 833,-683.747 833,-687.58 833,-687.58 833,-695.247 833,-695.247 833,-699.08 829.167,-702.913 825.333,-702.913"/>
<text text-anchor="middle" x="732" y="-687.713" font-family="Arial" font-size="14.00" fill="#c6c5fe">API/WeChatLoginExample.ts</text>
</g>
<!-- API/WeChatLoginExample.ts&#45;&gt;API/ApiConfig.ts -->
<g id="edge16" class="edge"><title>API/WeChatLoginExample.ts&#45;&gt;API/ApiConfig.ts</title>
<path fill="none" stroke="#757575" d="M790.994,-702.96C870.667,-715.787 1016.23,-728.127 1123,-673.413 1183.04,-642.647 1223.98,-569.409 1241.25,-533.289"/>
<polygon fill="#757575" stroke="#757575" points="1244.46,-534.695 1245.49,-524.151 1238.11,-531.748 1244.46,-534.695"/>
</g>
<!-- API/WeChatLoginExample.ts&#45;&gt;API/WeChatLogin.ts -->
<g id="edge17" class="edge"><title>API/WeChatLoginExample.ts&#45;&gt;API/WeChatLogin.ts</title>
<path fill="none" stroke="#757575" d="M815.953,-679.909C850.502,-675.117 890.513,-669.568 924.965,-664.79"/>
<polygon fill="#757575" stroke="#757575" points="925.57,-668.24 934.994,-663.4 924.608,-661.307 925.57,-668.24"/>
</g>
<!-- Network/AccountInfoExample.ts -->
<g id="node15" class="node"><title>Network/AccountInfoExample.ts</title>
<path fill="none" stroke="#c6c5fe" d="M833.333,-622.913C833.333,-622.913 630.667,-622.913 630.667,-622.913 626.833,-622.913 623,-619.08 623,-615.247 623,-615.247 623,-607.58 623,-607.58 623,-603.747 626.833,-599.913 630.667,-599.913 630.667,-599.913 833.333,-599.913 833.333,-599.913 837.167,-599.913 841,-603.747 841,-607.58 841,-607.58 841,-615.247 841,-615.247 841,-619.08 837.167,-622.913 833.333,-622.913"/>
<text text-anchor="middle" x="732" y="-607.713" font-family="Arial" font-size="14.00" fill="#c6c5fe">Network/AccountInfoExample.ts</text>
</g>
<!-- Network/AccountInfoExample.ts&#45;&gt;API/WeChatLogin.ts -->
<g id="edge18" class="edge"><title>Network/AccountInfoExample.ts&#45;&gt;API/WeChatLogin.ts</title>
<path fill="none" stroke="#757575" d="M808.234,-622.946C844.292,-628.473 887.571,-635.107 924.524,-640.771"/>
<polygon fill="#757575" stroke="#757575" points="924.353,-644.286 934.768,-642.341 925.414,-637.367 924.353,-644.286"/>
</g>
<!-- Network/AccountInfoManager.ts -->
<g id="node16" class="node"><title>Network/AccountInfoManager.ts</title>
<path fill="none" stroke="#c6c5fe" d="M1109.33,-623.913C1109.33,-623.913 906.667,-623.913 906.667,-623.913 902.833,-623.913 899,-620.08 899,-616.247 899,-616.247 899,-608.58 899,-608.58 899,-604.747 902.833,-600.913 906.667,-600.913 906.667,-600.913 1109.33,-600.913 1109.33,-600.913 1113.17,-600.913 1117,-604.747 1117,-608.58 1117,-608.58 1117,-616.247 1117,-616.247 1117,-620.08 1113.17,-623.913 1109.33,-623.913"/>
<text text-anchor="middle" x="1008" y="-608.713" font-family="Arial" font-size="14.00" fill="#c6c5fe">Network/AccountInfoManager.ts</text>
</g>
<!-- Network/AccountInfoExample.ts&#45;&gt;Network/AccountInfoManager.ts -->
<g id="edge19" class="edge"><title>Network/AccountInfoExample.ts&#45;&gt;Network/AccountInfoManager.ts</title>
<path fill="none" stroke="#757575" d="M841.292,-611.809C856.753,-611.865 872.725,-611.923 888.371,-611.98"/>
<polygon fill="#757575" stroke="#757575" points="888.585,-615.481 898.597,-612.018 888.61,-608.481 888.585,-615.481"/>
</g>
<!-- Network/AccountInfoManager.ts&#45;&gt;API/ApiConfig.ts -->
<g id="edge20" class="edge"><title>Network/AccountInfoManager.ts&#45;&gt;API/ApiConfig.ts</title>
<path fill="none" stroke="#757575" d="M1075.13,-600.879C1091.09,-597.132 1107.89,-592.362 1123,-586.413 1160.97,-571.467 1201.09,-546.438 1225.96,-529.681"/>
<polygon fill="#757575" stroke="#757575" points="1228.12,-532.446 1234.4,-523.915 1224.17,-526.666 1228.12,-532.446"/>
</g>
<!-- scripts/AgreementDialogController.ts -->
<g id="node17" class="node"><title>scripts/AgreementDialogController.ts</title>
<path fill="none" stroke="#cfffac" d="M849.333,-142.913C849.333,-142.913 614.667,-142.913 614.667,-142.913 610.833,-142.913 607,-139.08 607,-135.247 607,-135.247 607,-127.58 607,-127.58 607,-123.747 610.833,-119.913 614.667,-119.913 614.667,-119.913 849.333,-119.913 849.333,-119.913 853.167,-119.913 857,-123.747 857,-127.58 857,-127.58 857,-135.247 857,-135.247 857,-139.08 853.167,-142.913 849.333,-142.913"/>
<text text-anchor="middle" x="732" y="-127.713" font-family="Arial" font-size="14.00" fill="#cfffac">scripts/AgreementDialogController.ts</text>
</g>
<!-- scripts/AgreementDialogExample.ts -->
<g id="node18" class="node"><title>scripts/AgreementDialogExample.ts</title>
<path fill="none" stroke="#c6c5fe" d="M558.333,-142.913C558.333,-142.913 329.667,-142.913 329.667,-142.913 325.833,-142.913 322,-139.08 322,-135.247 322,-135.247 322,-127.58 322,-127.58 322,-123.747 325.833,-119.913 329.667,-119.913 329.667,-119.913 558.333,-119.913 558.333,-119.913 562.167,-119.913 566,-123.747 566,-127.58 566,-127.58 566,-135.247 566,-135.247 566,-139.08 562.167,-142.913 558.333,-142.913"/>
<text text-anchor="middle" x="444" y="-127.713" font-family="Arial" font-size="14.00" fill="#c6c5fe">scripts/AgreementDialogExample.ts</text>
</g>
<!-- scripts/AgreementDialogExample.ts&#45;&gt;scripts/AgreementDialogController.ts -->
<g id="edge21" class="edge"><title>scripts/AgreementDialogExample.ts&#45;&gt;scripts/AgreementDialogController.ts</title>
<path fill="none" stroke="#757575" d="M566.29,-131.413C576.338,-131.413 586.532,-131.413 596.669,-131.413"/>
<polygon fill="#757575" stroke="#757575" points="596.778,-134.913 606.778,-131.413 596.778,-127.913 596.778,-134.913"/>
</g>
<!-- scripts/AutoWeChatLoginExample.ts -->
<g id="node19" class="node"><title>scripts/AutoWeChatLoginExample.ts</title>
<path fill="none" stroke="#cfffac" d="M257.333,-111.913C257.333,-111.913 23.6667,-111.913 23.6667,-111.913 19.8333,-111.913 16,-108.08 16,-104.247 16,-104.247 16,-96.58 16,-96.58 16,-92.7467 19.8333,-88.9134 23.6667,-88.9134 23.6667,-88.9134 257.333,-88.9134 257.333,-88.9134 261.167,-88.9134 265,-92.7467 265,-96.58 265,-96.58 265,-104.247 265,-104.247 265,-108.08 261.167,-111.913 257.333,-111.913"/>
<text text-anchor="middle" x="140.5" y="-96.7134" font-family="Arial" font-size="14.00" fill="#cfffac">scripts/AutoWeChatLoginExample.ts</text>
</g>
<!-- scripts/EffectContainerPool.ts -->
<g id="node20" class="node"><title>scripts/EffectContainerPool.ts</title>
<path fill="none" stroke="#cfffac" d="M1103.33,-183.913C1103.33,-183.913 912.667,-183.913 912.667,-183.913 908.833,-183.913 905,-180.08 905,-176.247 905,-176.247 905,-168.58 905,-168.58 905,-164.747 908.833,-160.913 912.667,-160.913 912.667,-160.913 1103.33,-160.913 1103.33,-160.913 1107.17,-160.913 1111,-164.747 1111,-168.58 1111,-168.58 1111,-176.247 1111,-176.247 1111,-180.08 1107.17,-183.913 1103.33,-183.913"/>
<text text-anchor="middle" x="1008" y="-168.713" font-family="Arial" font-size="14.00" fill="#cfffac">scripts/EffectContainerPool.ts</text>
</g>
<!-- scripts/GameProgressManager.ts -->
<g id="node21" class="node"><title>scripts/GameProgressManager.ts</title>
<path fill="none" stroke="#c6c5fe" d="M1115.33,-383.913C1115.33,-383.913 900.667,-383.913 900.667,-383.913 896.833,-383.913 893,-380.08 893,-376.247 893,-376.247 893,-368.58 893,-368.58 893,-364.747 896.833,-360.913 900.667,-360.913 900.667,-360.913 1115.33,-360.913 1115.33,-360.913 1119.17,-360.913 1123,-364.747 1123,-368.58 1123,-368.58 1123,-376.247 1123,-376.247 1123,-380.08 1119.17,-383.913 1115.33,-383.913"/>
<text text-anchor="middle" x="1008" y="-368.713" font-family="Arial" font-size="14.00" fill="#c6c5fe">scripts/GameProgressManager.ts</text>
</g>
<!-- scripts/GameProgressManager.ts&#45;&gt;API/ApiConfig.ts -->
<g id="edge22" class="edge"><title>scripts/GameProgressManager.ts&#45;&gt;API/ApiConfig.ts</title>
<path fill="none" stroke="#757575" d="M1032.91,-384.017C1056.2,-395.503 1092.47,-413.864 1123,-431.413 1159,-452.109 1199.24,-478.189 1224.7,-495.077"/>
<polygon fill="#757575" stroke="#757575" points="1222.8,-498.014 1233.06,-500.643 1226.68,-492.187 1222.8,-498.014"/>
</g>
<!-- scripts/GameProgressManager.ts&#45;&gt;API/DeviceInfoCollector.ts -->
<g id="edge23" class="edge"><title>scripts/GameProgressManager.ts&#45;&gt;API/DeviceInfoCollector.ts</title>
<path fill="none" stroke="#757575" d="M1037.65,-360.787C1081.13,-343.141 1163.85,-309.577 1212.37,-289.887"/>
<polygon fill="#757575" stroke="#757575" points="1213.94,-293.028 1221.89,-286.025 1211.3,-286.542 1213.94,-293.028"/>
</g>
<!-- scripts/ItemData.ts -->
<g id="node22" class="node"><title>scripts/ItemData.ts</title>
<path fill="none" stroke="#cfffac" d="M1067.83,-101.913C1067.83,-101.913 948.167,-101.913 948.167,-101.913 944.333,-101.913 940.5,-98.08 940.5,-94.2467 940.5,-94.2467 940.5,-86.58 940.5,-86.58 940.5,-82.7467 944.333,-78.9134 948.167,-78.9134 948.167,-78.9134 1067.83,-78.9134 1067.83,-78.9134 1071.67,-78.9134 1075.5,-82.7467 1075.5,-86.58 1075.5,-86.58 1075.5,-94.2467 1075.5,-94.2467 1075.5,-98.08 1071.67,-101.913 1067.83,-101.913"/>
<text text-anchor="middle" x="1008" y="-86.7134" font-family="Arial" font-size="14.00" fill="#cfffac">scripts/ItemData.ts</text>
</g>
<!-- scripts/ItemDropGame.ts -->
<g id="node23" class="node"><title>scripts/ItemDropGame.ts</title>
<path fill="none" stroke="#c6c5fe" d="M812.333,-183.913C812.333,-183.913 651.667,-183.913 651.667,-183.913 647.833,-183.913 644,-180.08 644,-176.247 644,-176.247 644,-168.58 644,-168.58 644,-164.747 647.833,-160.913 651.667,-160.913 651.667,-160.913 812.333,-160.913 812.333,-160.913 816.167,-160.913 820,-164.747 820,-168.58 820,-168.58 820,-176.247 820,-176.247 820,-180.08 816.167,-183.913 812.333,-183.913"/>
<text text-anchor="middle" x="732" y="-168.713" font-family="Arial" font-size="14.00" fill="#c6c5fe">scripts/ItemDropGame.ts</text>
</g>
<!-- scripts/ItemDropGame.ts&#45;&gt;scripts/EffectContainerPool.ts -->
<g id="edge24" class="edge"><title>scripts/ItemDropGame.ts&#45;&gt;scripts/EffectContainerPool.ts</title>
<path fill="none" stroke="#757575" d="M820.072,-172.413C843.761,-172.413 869.757,-172.413 894.632,-172.413"/>
<polygon fill="#757575" stroke="#757575" points="894.842,-175.913 904.842,-172.413 894.842,-168.913 894.842,-175.913"/>
</g>
<!-- scripts/ItemDropGame.ts&#45;&gt;scripts/GameProgressManager.ts -->
<g id="edge25" class="edge"><title>scripts/ItemDropGame.ts&#45;&gt;scripts/GameProgressManager.ts</title>
<path fill="none" stroke="#757575" d="M820.281,-175.209C833.521,-178.701 846.307,-184.14 857,-192.413 888.48,-216.77 869.32,-242.422 893,-274.413 917.586,-307.628 955.367,-337.244 980.617,-355.008"/>
<polygon fill="#757575" stroke="#757575" points="978.766,-357.983 988.984,-360.783 982.742,-352.222 978.766,-357.983"/>
</g>
<!-- scripts/ItemDropGame.ts&#45;&gt;scripts/ItemData.ts -->
<g id="edge26" class="edge"><title>scripts/ItemDropGame.ts&#45;&gt;scripts/ItemData.ts</title>
<path fill="none" stroke="#757575" d="M820.292,-165.398C833.1,-162.19 845.751,-157.691 857,-151.413 878.176,-139.596 871.859,-122.293 893,-110.413 904.377,-104.02 917.318,-99.5838 930.298,-96.5226"/>
<polygon fill="#757575" stroke="#757575" points="931.14,-99.9222 940.206,-94.4401 929.7,-93.0719 931.14,-99.9222"/>
</g>
<!-- scripts/RewardEffectController.ts -->
<g id="node24" class="node"><title>scripts/RewardEffectController.ts</title>
<path fill="none" stroke="#cfffac" d="M1113.33,-224.913C1113.33,-224.913 902.667,-224.913 902.667,-224.913 898.833,-224.913 895,-221.08 895,-217.247 895,-217.247 895,-209.58 895,-209.58 895,-205.747 898.833,-201.913 902.667,-201.913 902.667,-201.913 1113.33,-201.913 1113.33,-201.913 1117.17,-201.913 1121,-205.747 1121,-209.58 1121,-209.58 1121,-217.247 1121,-217.247 1121,-221.08 1117.17,-224.913 1113.33,-224.913"/>
<text text-anchor="middle" x="1008" y="-209.713" font-family="Arial" font-size="14.00" fill="#cfffac">scripts/RewardEffectController.ts</text>
</g>
<!-- scripts/ItemDropGame.ts&#45;&gt;scripts/RewardEffectController.ts -->
<g id="edge27" class="edge"><title>scripts/ItemDropGame.ts&#45;&gt;scripts/RewardEffectController.ts</title>
<path fill="none" stroke="#757575" d="M810.053,-183.943C844.197,-189.052 884.528,-195.087 919.773,-200.361"/>
<polygon fill="#757575" stroke="#757575" points="919.643,-203.881 930.051,-201.899 920.679,-196.958 919.643,-203.881"/>
</g>
<!-- scripts/LoginController.ts -->
<g id="node25" class="node"><title>scripts/LoginController.ts</title>
<path fill="none" stroke="#c6c5fe" d="M523.333,-367.913C523.333,-367.913 364.667,-367.913 364.667,-367.913 360.833,-367.913 357,-364.08 357,-360.247 357,-360.247 357,-352.58 357,-352.58 357,-348.747 360.833,-344.913 364.667,-344.913 364.667,-344.913 523.333,-344.913 523.333,-344.913 527.167,-344.913 531,-348.747 531,-352.58 531,-352.58 531,-360.247 531,-360.247 531,-364.08 527.167,-367.913 523.333,-367.913"/>
<text text-anchor="middle" x="444" y="-352.713" font-family="Arial" font-size="14.00" fill="#c6c5fe">scripts/LoginController.ts</text>
</g>
<!-- scripts/LoginController.ts&#45;&gt;API/ApiConfig.ts -->
<g id="edge28" class="edge"><title>scripts/LoginController.ts&#45;&gt;API/ApiConfig.ts</title>
<path fill="none" stroke="#757575" d="M508.452,-367.941C531.614,-375.366 555.825,-387.527 571,-407.413 612.403,-461.669 555.991,-667.071 607,-712.413 616.882,-721.197 1118.76,-710.757 1123,-708.413 1192.45,-670.061 1230.17,-576.034 1244.13,-533.692"/>
<polygon fill="#757575" stroke="#757575" points="1247.48,-534.697 1247.17,-524.106 1240.81,-532.579 1247.48,-534.697"/>
</g>
<!-- scripts/LoginController.ts&#45;&gt;API/LoginService.ts -->
<g id="edge29" class="edge"><title>scripts/LoginController.ts&#45;&gt;API/LoginService.ts</title>
<path fill="none" stroke="#757575" d="M486.387,-344.869C518.983,-336.037 565.662,-323.961 607,-315.413 620.967,-312.525 635.891,-309.808 650.372,-307.362"/>
<polygon fill="#757575" stroke="#757575" points="651.017,-310.802 660.309,-305.713 649.871,-303.897 651.017,-310.802"/>
</g>
<!-- scripts/LoginController.ts&#45;&gt;API/PangleAdManager.ts -->
<g id="edge30" class="edge"><title>scripts/LoginController.ts&#45;&gt;API/PangleAdManager.ts</title>
<path fill="none" stroke="#757575" d="M514.89,-344.883C534.852,-338.808 555.397,-329.542 571,-315.413 600.504,-288.698 575.52,-257.77 607,-233.413 615.02,-227.208 624.217,-222.598 633.9,-219.207"/>
<polygon fill="#757575" stroke="#757575" points="635.177,-222.477 643.719,-216.209 633.132,-215.782 635.177,-222.477"/>
</g>
<!-- scripts/LoginController.ts&#45;&gt;API/WeChatLogin.ts -->
<g id="edge31" class="edge"><title>scripts/LoginController.ts&#45;&gt;API/WeChatLogin.ts</title>
<path fill="none" stroke="#757575" d="M507.047,-367.958C530.441,-375.402 555.191,-387.572 571,-407.413 633.835,-486.275 532.077,-563.931 607,-631.413 652.074,-672.011 821.448,-667.496 924.795,-660.499"/>
<polygon fill="#757575" stroke="#757575" points="925.161,-663.982 934.893,-659.793 924.673,-656.999 925.161,-663.982"/>
</g>
<!-- scripts/LoginController.ts&#45;&gt;scripts/AgreementDialogController.ts -->
<g id="edge32" class="edge"><title>scripts/LoginController.ts&#45;&gt;scripts/AgreementDialogController.ts</title>
<path fill="none" stroke="#757575" d="M522.618,-344.823C540.642,-338.735 558.257,-329.477 571,-315.413 621.105,-260.112 552.772,-202.678 607,-151.413 607.832,-150.627 608.682,-149.864 609.549,-149.125"/>
<polygon fill="#757575" stroke="#757575" points="611.792,-151.82 617.779,-143.079 607.647,-146.179 611.792,-151.82"/>
</g>
<!-- scripts/LoginController.ts&#45;&gt;scripts/GameProgressManager.ts -->
<g id="edge33" class="edge"><title>scripts/LoginController.ts&#45;&gt;scripts/GameProgressManager.ts</title>
<path fill="none" stroke="#757575" d="M531.274,-358.87C625.169,-361.543 776.13,-365.841 882.779,-368.877"/>
<polygon fill="#757575" stroke="#757575" points="882.863,-372.381 892.958,-369.167 883.062,-365.383 882.863,-372.381"/>
</g>
<!-- scripts/MinePageUIController.ts -->
<g id="node26" class="node"><title>scripts/MinePageUIController.ts</title>
<path fill="none" stroke="#c6c5fe" d="M832.833,-562.913C832.833,-562.913 631.167,-562.913 631.167,-562.913 627.333,-562.913 623.5,-559.08 623.5,-555.247 623.5,-555.247 623.5,-547.58 623.5,-547.58 623.5,-543.747 627.333,-539.913 631.167,-539.913 631.167,-539.913 832.833,-539.913 832.833,-539.913 836.667,-539.913 840.5,-543.747 840.5,-547.58 840.5,-547.58 840.5,-555.247 840.5,-555.247 840.5,-559.08 836.667,-562.913 832.833,-562.913"/>
<text text-anchor="middle" x="732" y="-547.713" font-family="Arial" font-size="14.00" fill="#c6c5fe">scripts/MinePageUIController.ts</text>
</g>
<!-- scripts/MinePageUIController.ts&#45;&gt;API/ApiConfig.ts -->
<g id="edge34" class="edge"><title>scripts/MinePageUIController.ts&#45;&gt;API/ApiConfig.ts</title>
<path fill="none" stroke="#757575" d="M840.847,-560.565C919.52,-565.091 1028.46,-566.895 1123,-552.413 1153.97,-547.669 1187.76,-536.796 1212.76,-527.582"/>
<polygon fill="#757575" stroke="#757575" points="1214.1,-530.817 1222.23,-524.018 1211.64,-524.266 1214.1,-530.817"/>
</g>
<!-- scripts/TreasureGuideUI.ts -->
<g id="node27" class="node"><title>scripts/TreasureGuideUI.ts</title>
<path fill="none" stroke="#c6c5fe" d="M1093.83,-543.913C1093.83,-543.913 922.167,-543.913 922.167,-543.913 918.333,-543.913 914.5,-540.08 914.5,-536.247 914.5,-536.247 914.5,-528.58 914.5,-528.58 914.5,-524.747 918.333,-520.913 922.167,-520.913 922.167,-520.913 1093.83,-520.913 1093.83,-520.913 1097.67,-520.913 1101.5,-524.747 1101.5,-528.58 1101.5,-528.58 1101.5,-536.247 1101.5,-536.247 1101.5,-540.08 1097.67,-543.913 1093.83,-543.913"/>
<text text-anchor="middle" x="1008" y="-528.713" font-family="Arial" font-size="14.00" fill="#c6c5fe">scripts/TreasureGuideUI.ts</text>
</g>
<!-- scripts/MinePageUIController.ts&#45;&gt;scripts/TreasureGuideUI.ts -->
<g id="edge35" class="edge"><title>scripts/MinePageUIController.ts&#45;&gt;scripts/TreasureGuideUI.ts</title>
<path fill="none" stroke="#757575" d="M840.506,-543.959C861.507,-542.502 883.479,-540.979 904.319,-539.534"/>
<polygon fill="#757575" stroke="#757575" points="904.716,-543.015 914.45,-538.831 904.231,-536.031 904.716,-543.015"/>
</g>
<!-- scripts/TreasureGuideUI.ts&#45;&gt;API/ApiConfig.ts -->
<g id="edge38" class="edge"><title>scripts/TreasureGuideUI.ts&#45;&gt;API/ApiConfig.ts</title>
<path fill="none" stroke="#757575" d="M1101.68,-524.738C1127.75,-522.579 1155.67,-520.267 1180.2,-518.235"/>
<polygon fill="#757575" stroke="#757575" points="1180.82,-521.696 1190.49,-517.383 1180.24,-514.72 1180.82,-521.696"/>
</g>
<!-- scripts/MultiplierSelector.ts -->
<g id="node28" class="node"><title>scripts/MultiplierSelector.ts</title>
<path fill="none" stroke="#cfffac" d="M225.833,-152.913C225.833,-152.913 55.1667,-152.913 55.1667,-152.913 51.3333,-152.913 47.5,-149.08 47.5,-145.247 47.5,-145.247 47.5,-137.58 47.5,-137.58 47.5,-133.747 51.3333,-129.913 55.1667,-129.913 55.1667,-129.913 225.833,-129.913 225.833,-129.913 229.667,-129.913 233.5,-133.747 233.5,-137.58 233.5,-137.58 233.5,-145.247 233.5,-145.247 233.5,-149.08 229.667,-152.913 225.833,-152.913"/>
<text text-anchor="middle" x="140.5" y="-137.713" font-family="Arial" font-size="14.00" fill="#cfffac">scripts/MultiplierSelector.ts</text>
</g>
<!-- scripts/PrivacyPolicyViewer.ts -->
<g id="node29" class="node"><title>scripts/PrivacyPolicyViewer.ts</title>
<path fill="none" stroke="#cfffac" d="M235.333,-193.913C235.333,-193.913 45.6667,-193.913 45.6667,-193.913 41.8333,-193.913 38,-190.08 38,-186.247 38,-186.247 38,-178.58 38,-178.58 38,-174.747 41.8333,-170.913 45.6667,-170.913 45.6667,-170.913 235.333,-170.913 235.333,-170.913 239.167,-170.913 243,-174.747 243,-178.58 243,-178.58 243,-186.247 243,-186.247 243,-190.08 239.167,-193.913 235.333,-193.913"/>
<text text-anchor="middle" x="140.5" y="-178.713" font-family="Arial" font-size="14.00" fill="#cfffac">scripts/PrivacyPolicyViewer.ts</text>
</g>
<!-- scripts/PublicNoticeUIController.ts -->
<g id="node30" class="node"><title>scripts/PublicNoticeUIController.ts</title>
<path fill="none" stroke="#cfffac" d="M249.333,-234.913C249.333,-234.913 31.6667,-234.913 31.6667,-234.913 27.8333,-234.913 24,-231.08 24,-227.247 24,-227.247 24,-219.58 24,-219.58 24,-215.747 27.8333,-211.913 31.6667,-211.913 31.6667,-211.913 249.333,-211.913 249.333,-211.913 253.167,-211.913 257,-215.747 257,-219.58 257,-219.58 257,-227.247 257,-227.247 257,-231.08 253.167,-234.913 249.333,-234.913"/>
<text text-anchor="middle" x="140.5" y="-219.713" font-family="Arial" font-size="14.00" fill="#cfffac">scripts/PublicNoticeUIController.ts</text>
</g>
<!-- scripts/RiskDetectionTest.ts -->
<g id="node31" class="node"><title>scripts/RiskDetectionTest.ts</title>
<path fill="none" stroke="#c6c5fe" d="M229.833,-70.9134C229.833,-70.9134 51.1667,-70.9134 51.1667,-70.9134 47.3333,-70.9134 43.5,-67.08 43.5,-63.2467 43.5,-63.2467 43.5,-55.58 43.5,-55.58 43.5,-51.7467 47.3333,-47.9134 51.1667,-47.9134 51.1667,-47.9134 229.833,-47.9134 229.833,-47.9134 233.667,-47.9134 237.5,-51.7467 237.5,-55.58 237.5,-55.58 237.5,-63.2467 237.5,-63.2467 237.5,-67.08 233.667,-70.9134 229.833,-70.9134"/>
<text text-anchor="middle" x="140.5" y="-55.7134" font-family="Arial" font-size="14.00" fill="#c6c5fe">scripts/RiskDetectionTest.ts</text>
</g>
<!-- scripts/RiskDetectionTest.ts&#45;&gt;API/RiskDetectionExample.ts -->
<g id="edge36" class="edge"><title>scripts/RiskDetectionTest.ts&#45;&gt;API/RiskDetectionExample.ts</title>
<path fill="none" stroke="#757575" d="M237.725,-53.0302C267.894,-51.029 301.429,-48.8045 332.502,-46.7432"/>
<polygon fill="#757575" stroke="#757575" points="332.75,-50.2346 342.497,-46.0802 332.287,-43.2499 332.75,-50.2346"/>
</g>
<!-- scripts/RiskDetectionTest.ts&#45;&gt;API/RiskDetectionService.ts -->
<g id="edge37" class="edge"><title>scripts/RiskDetectionTest.ts&#45;&gt;API/RiskDetectionService.ts</title>
<path fill="none" stroke="#757575" d="M237.9,-60.9597C324.961,-61.9881 456.586,-62.6287 571,-59.4134 587.971,-58.9364 605.943,-58.1755 623.474,-57.293"/>
<polygon fill="#757575" stroke="#757575" points="623.928,-60.7742 633.734,-56.7606 623.566,-53.7836 623.928,-60.7742"/>
</g>
<!-- scripts/WeChatLoginButtonExample.ts -->
<g id="node32" class="node"><title>scripts/WeChatLoginButtonExample.ts</title>
<path fill="none" stroke="#cfffac" d="M262.833,-275.913C262.833,-275.913 18.1667,-275.913 18.1667,-275.913 14.3333,-275.913 10.5,-272.08 10.5,-268.247 10.5,-268.247 10.5,-260.58 10.5,-260.58 10.5,-256.747 14.3333,-252.913 18.1667,-252.913 18.1667,-252.913 262.833,-252.913 262.833,-252.913 266.667,-252.913 270.5,-256.747 270.5,-260.58 270.5,-260.58 270.5,-268.247 270.5,-268.247 270.5,-272.08 266.667,-275.913 262.833,-275.913"/>
<text text-anchor="middle" x="140.5" y="-260.713" font-family="Arial" font-size="14.00" fill="#cfffac">scripts/WeChatLoginButtonExample.ts</text>
</g>
<!-- scripts/WeChatLoginExample.ts -->
<g id="node33" class="node"><title>scripts/WeChatLoginExample.ts</title>
<path fill="none" stroke="#cfffac" d="M242.833,-316.913C242.833,-316.913 38.1667,-316.913 38.1667,-316.913 34.3333,-316.913 30.5,-313.08 30.5,-309.247 30.5,-309.247 30.5,-301.58 30.5,-301.58 30.5,-297.747 34.3333,-293.913 38.1667,-293.913 38.1667,-293.913 242.833,-293.913 242.833,-293.913 246.667,-293.913 250.5,-297.747 250.5,-301.58 250.5,-301.58 250.5,-309.247 250.5,-309.247 250.5,-313.08 246.667,-316.913 242.833,-316.913"/>
<text text-anchor="middle" x="140.5" y="-301.713" font-family="Arial" font-size="14.00" fill="#cfffac">scripts/WeChatLoginExample.ts</text>
</g>
<!-- scripts/场景跳转/SceneNavigator.ts -->
<g id="node34" class="node"><title>scripts/场景跳转/SceneNavigator.ts</title>
<path fill="none" stroke="#c6c5fe" d="M840.833,-347.913C840.833,-347.913 623.167,-347.913 623.167,-347.913 619.333,-347.913 615.5,-344.08 615.5,-340.247 615.5,-340.247 615.5,-332.58 615.5,-332.58 615.5,-328.747 619.333,-324.913 623.167,-324.913 623.167,-324.913 840.833,-324.913 840.833,-324.913 844.667,-324.913 848.5,-328.747 848.5,-332.58 848.5,-332.58 848.5,-340.247 848.5,-340.247 848.5,-344.08 844.667,-347.913 840.833,-347.913"/>
<text text-anchor="middle" x="732" y="-332.713" font-family="Arial" font-size="14.00" fill="#c6c5fe">scripts/场景跳转/SceneNavigator.ts</text>
</g>
<!-- scripts/场景跳转/SceneNavigator.ts&#45;&gt;scripts/GameProgressManager.ts -->
<g id="edge39" class="edge"><title>scripts/场景跳转/SceneNavigator.ts&#45;&gt;scripts/GameProgressManager.ts</title>
<path fill="none" stroke="#757575" d="M820.826,-347.953C848.97,-351.65 880.307,-355.768 909.123,-359.554"/>
<polygon fill="#757575" stroke="#757575" points="908.831,-363.045 919.201,-360.878 909.743,-356.105 908.831,-363.045"/>
</g>
<!-- scripts/抽奖主脚本/LuckyDraw.ts -->
<g id="node35" class="node"><title>scripts/抽奖主脚本/LuckyDraw.ts</title>
<path fill="none" stroke="#c6c5fe" d="M831.333,-427.913C831.333,-427.913 632.667,-427.913 632.667,-427.913 628.833,-427.913 625,-424.08 625,-420.247 625,-420.247 625,-412.58 625,-412.58 625,-408.747 628.833,-404.913 632.667,-404.913 632.667,-404.913 831.333,-404.913 831.333,-404.913 835.167,-404.913 839,-408.747 839,-412.58 839,-412.58 839,-420.247 839,-420.247 839,-424.08 835.167,-427.913 831.333,-427.913"/>
<text text-anchor="middle" x="732" y="-412.713" font-family="Arial" font-size="14.00" fill="#c6c5fe">scripts/抽奖主脚本/LuckyDraw.ts</text>
</g>
<!-- scripts/抽奖主脚本/LuckyDraw.ts&#45;&gt;API/ApiConfig.ts -->
<g id="edge40" class="edge"><title>scripts/抽奖主脚本/LuckyDraw.ts&#45;&gt;API/ApiConfig.ts</title>
<path fill="none" stroke="#757575" d="M759.912,-427.937C791.272,-440.867 844.937,-461.461 893,-472.413 991.084,-494.764 1107.27,-504.825 1179.95,-509.212"/>
<polygon fill="#757575" stroke="#757575" points="1180.17,-512.73 1190.35,-509.819 1180.57,-505.742 1180.17,-512.73"/>
</g>
<!-- scripts/抽奖主脚本/LuckyDraw.ts&#45;&gt;API/DeviceInfoCollector.ts -->
<g id="edge41" class="edge"><title>scripts/抽奖主脚本/LuckyDraw.ts&#45;&gt;API/DeviceInfoCollector.ts</title>
<path fill="none" stroke="#757575" d="M828.474,-427.939C910.053,-433.801 1028.82,-432.688 1123,-392.413 1172.55,-371.226 1215.04,-322.138 1236.19,-294.413"/>
<polygon fill="#757575" stroke="#757575" points="1239.12,-296.335 1242.29,-286.224 1233.51,-292.153 1239.12,-296.335"/>
</g>
<!-- scripts/抽奖主脚本/LuckyDraw.ts&#45;&gt;scripts/GameProgressManager.ts -->
<g id="edge42" class="edge"><title>scripts/抽奖主脚本/LuckyDraw.ts&#45;&gt;scripts/GameProgressManager.ts</title>
<path fill="none" stroke="#757575" d="M804.632,-404.91C841.603,-398.973 886.87,-391.704 925.209,-385.548"/>
<polygon fill="#757575" stroke="#757575" points="925.992,-388.967 935.31,-383.926 924.882,-382.055 925.992,-388.967"/>
</g>
<!-- scripts/按钮显现隐藏/LuckyDrawButton.ts -->
<g id="node36" class="node"><title>scripts/按钮显现隐藏/LuckyDrawButton.ts</title>
<path fill="none" stroke="#cfffac" d="M266.333,-357.913C266.333,-357.913 14.6667,-357.913 14.6667,-357.913 10.8333,-357.913 7,-354.08 7,-350.247 7,-350.247 7,-342.58 7,-342.58 7,-338.747 10.8333,-334.913 14.6667,-334.913 14.6667,-334.913 266.333,-334.913 266.333,-334.913 270.167,-334.913 274,-338.747 274,-342.58 274,-342.58 274,-350.247 274,-350.247 274,-354.08 270.167,-357.913 266.333,-357.913"/>
<text text-anchor="middle" x="140.5" y="-342.713" font-family="Arial" font-size="14.00" fill="#cfffac">scripts/按钮显现隐藏/LuckyDrawButton.ts</text>
</g>
<!-- scripts/按钮显现隐藏/PopupButtonBinder.ts -->
<g id="node37" class="node"><title>scripts/按钮显现隐藏/PopupButtonBinder.ts</title>
<path fill="none" stroke="#cfffac" d="M273.333,-398.913C273.333,-398.913 7.66667,-398.913 7.66667,-398.913 3.83333,-398.913 0,-395.08 0,-391.247 0,-391.247 0,-383.58 0,-383.58 0,-379.747 3.83333,-375.913 7.66667,-375.913 7.66667,-375.913 273.333,-375.913 273.333,-375.913 277.167,-375.913 281,-379.747 281,-383.58 281,-383.58 281,-391.247 281,-391.247 281,-395.08 277.167,-398.913 273.333,-398.913"/>
<text text-anchor="middle" x="140.5" y="-383.713" font-family="Arial" font-size="14.00" fill="#cfffac">scripts/按钮显现隐藏/PopupButtonBinder.ts</text>
</g>
<!-- scripts/按钮显现隐藏/PopupController.ts -->
<g id="node38" class="node"><title>scripts/按钮显现隐藏/PopupController.ts</title>
<path fill="none" stroke="#c6c5fe" d="M263.333,-439.913C263.333,-439.913 17.6667,-439.913 17.6667,-439.913 13.8333,-439.913 10,-436.08 10,-432.247 10,-432.247 10,-424.58 10,-424.58 10,-420.747 13.8333,-416.913 17.6667,-416.913 17.6667,-416.913 263.333,-416.913 263.333,-416.913 267.167,-416.913 271,-420.747 271,-424.58 271,-424.58 271,-432.247 271,-432.247 271,-436.08 267.167,-439.913 263.333,-439.913"/>
<text text-anchor="middle" x="140.5" y="-424.713" font-family="Arial" font-size="14.00" fill="#c6c5fe">scripts/按钮显现隐藏/PopupController.ts</text>
</g>
<!-- scripts/按钮显现隐藏/PopupManager.ts -->
<g id="node39" class="node"><title>scripts/按钮显现隐藏/PopupManager.ts</title>
<path fill="none" stroke="#cfffac" d="M563.333,-439.913C563.333,-439.913 324.667,-439.913 324.667,-439.913 320.833,-439.913 317,-436.08 317,-432.247 317,-432.247 317,-424.58 317,-424.58 317,-420.747 320.833,-416.913 324.667,-416.913 324.667,-416.913 563.333,-416.913 563.333,-416.913 567.167,-416.913 571,-420.747 571,-424.58 571,-424.58 571,-432.247 571,-432.247 571,-436.08 567.167,-439.913 563.333,-439.913"/>
<text text-anchor="middle" x="444" y="-424.713" font-family="Arial" font-size="14.00" fill="#cfffac">scripts/按钮显现隐藏/PopupManager.ts</text>
</g>
<!-- scripts/按钮显现隐藏/PopupController.ts&#45;&gt;scripts/按钮显现隐藏/PopupManager.ts -->
<g id="edge43" class="edge"><title>scripts/按钮显现隐藏/PopupController.ts&#45;&gt;scripts/按钮显现隐藏/PopupManager.ts</title>
<path fill="none" stroke="#757575" d="M271.113,-428.413C282.84,-428.413 294.741,-428.413 306.525,-428.413"/>
<polygon fill="#757575" stroke="#757575" points="306.843,-431.913 316.843,-428.413 306.843,-424.913 306.843,-431.913"/>
</g>
<!-- scripts/按钮显现隐藏/PopupHider.ts -->
<g id="node40" class="node"><title>scripts/按钮显现隐藏/PopupHider.ts</title>
<path fill="none" stroke="#cfffac" d="M249.333,-480.913C249.333,-480.913 31.6667,-480.913 31.6667,-480.913 27.8333,-480.913 24,-477.08 24,-473.247 24,-473.247 24,-465.58 24,-465.58 24,-461.747 27.8333,-457.913 31.6667,-457.913 31.6667,-457.913 249.333,-457.913 249.333,-457.913 253.167,-457.913 257,-461.747 257,-465.58 257,-465.58 257,-473.247 257,-473.247 257,-477.08 253.167,-480.913 249.333,-480.913"/>
<text text-anchor="middle" x="140.5" y="-465.713" font-family="Arial" font-size="14.00" fill="#cfffac">scripts/按钮显现隐藏/PopupHider.ts</text>
</g>
<!-- scripts/按钮显现隐藏/PopupHiderButton.ts -->
<g id="node41" class="node"><title>scripts/按钮显现隐藏/PopupHiderButton.ts</title>
<path fill="none" stroke="#cfffac" d="M269.833,-521.913C269.833,-521.913 11.1667,-521.913 11.1667,-521.913 7.33333,-521.913 3.5,-518.08 3.5,-514.247 3.5,-514.247 3.5,-506.58 3.5,-506.58 3.5,-502.747 7.33333,-498.913 11.1667,-498.913 11.1667,-498.913 269.833,-498.913 269.833,-498.913 273.667,-498.913 277.5,-502.747 277.5,-506.58 277.5,-506.58 277.5,-514.247 277.5,-514.247 277.5,-518.08 273.667,-521.913 269.833,-521.913"/>
<text text-anchor="middle" x="140.5" y="-506.713" font-family="Arial" font-size="14.00" fill="#cfffac">scripts/按钮显现隐藏/PopupHiderButton.ts</text>
</g>
<!-- scripts/节点生成/GameUIManager.ts -->
<g id="node42" class="node"><title>scripts/节点生成/GameUIManager.ts</title>
<path fill="none" stroke="#cfffac" d="M252.833,-562.913C252.833,-562.913 28.1667,-562.913 28.1667,-562.913 24.3333,-562.913 20.5,-559.08 20.5,-555.247 20.5,-555.247 20.5,-547.58 20.5,-547.58 20.5,-543.747 24.3333,-539.913 28.1667,-539.913 28.1667,-539.913 252.833,-539.913 252.833,-539.913 256.667,-539.913 260.5,-543.747 260.5,-547.58 260.5,-547.58 260.5,-555.247 260.5,-555.247 260.5,-559.08 256.667,-562.913 252.833,-562.913"/>
<text text-anchor="middle" x="140.5" y="-547.713" font-family="Arial" font-size="14.00" fill="#cfffac">scripts/节点生成/GameUIManager.ts</text>
</g>
<!-- scripts/财神数量UI/ClinkEvent.ts -->
<g id="node43" class="node"><title>scripts/财神数量UI/ClinkEvent.ts</title>
<path fill="none" stroke="#cfffac" d="M239.333,-603.913C239.333,-603.913 41.6667,-603.913 41.6667,-603.913 37.8333,-603.913 34,-600.08 34,-596.247 34,-596.247 34,-588.58 34,-588.58 34,-584.747 37.8333,-580.913 41.6667,-580.913 41.6667,-580.913 239.333,-580.913 239.333,-580.913 243.167,-580.913 247,-584.747 247,-588.58 247,-588.58 247,-596.247 247,-596.247 247,-600.08 243.167,-603.913 239.333,-603.913"/>
<text text-anchor="middle" x="140.5" y="-588.713" font-family="Arial" font-size="14.00" fill="#cfffac">scripts/财神数量UI/ClinkEvent.ts</text>
</g>
</g>
</svg>
