<?xml version="1.0" encoding="UTF-8" standalone="no"?>
<!DOCTYPE svg PUBLIC "-//W3C//DTD SVG 1.1//EN"
 "http://www.w3.org/Graphics/SVG/1.1/DTD/svg11.dtd">
<!-- Generated by graphviz version 2.38.0 (20140413.2041)
 -->
<!-- Title: G Pages: 1 -->
<svg width="1387pt" height="1203pt"
 viewBox="0.00 0.00 1387.20 1203.20" xmlns="http://www.w3.org/2000/svg" xmlns:xlink="http://www.w3.org/1999/xlink">
<g id="graph0" class="graph" transform="scale(1 1) rotate(0) translate(21.6 1181.6)">
<title>G</title>
<polygon fill="#111111" stroke="none" points="-21.6,21.6 -21.6,-1181.6 1365.6,-1181.6 1365.6,21.6 -21.6,21.6"/>
<!-- API/ApiConfig.ts -->
<g id="node1" class="node"><title>API/ApiConfig.ts</title>
<path fill="none" stroke="#cfffac" d="M1304.83,-305C1304.83,-305 1198.17,-305 1198.17,-305 1194.33,-305 1190.5,-301.167 1190.5,-297.333 1190.5,-297.333 1190.5,-289.667 1190.5,-289.667 1190.5,-285.833 1194.33,-282 1198.17,-282 1198.17,-282 1304.83,-282 1304.83,-282 1308.67,-282 1312.5,-285.833 1312.5,-289.667 1312.5,-289.667 1312.5,-297.333 1312.5,-297.333 1312.5,-301.167 1308.67,-305 1304.83,-305"/>
<text text-anchor="middle" x="1251.5" y="-289.8" font-family="Arial" font-size="14.00" fill="#cfffac">API/ApiConfig.ts</text>
</g>
<!-- API/ApiConfigExample.ts -->
<g id="node2" class="node"><title>API/ApiConfigExample.ts</title>
<path fill="none" stroke="#c6c5fe" d="M1089.33,-305C1089.33,-305 926.667,-305 926.667,-305 922.833,-305 919,-301.167 919,-297.333 919,-297.333 919,-289.667 919,-289.667 919,-285.833 922.833,-282 926.667,-282 926.667,-282 1089.33,-282 1089.33,-282 1093.17,-282 1097,-285.833 1097,-289.667 1097,-289.667 1097,-297.333 1097,-297.333 1097,-301.167 1093.17,-305 1089.33,-305"/>
<text text-anchor="middle" x="1008" y="-289.8" font-family="Arial" font-size="14.00" fill="#c6c5fe">API/ApiConfigExample.ts</text>
</g>
<!-- API/ApiConfigExample.ts&#45;&gt;API/ApiConfig.ts -->
<g id="edge1" class="edge"><title>API/ApiConfigExample.ts&#45;&gt;API/ApiConfig.ts</title>
<path fill="none" stroke="#757575" d="M1097.21,-293.5C1124.57,-293.5 1154.34,-293.5 1180.3,-293.5"/>
<polygon fill="#757575" stroke="#757575" points="1180.42,-297 1190.42,-293.5 1180.42,-290 1180.42,-297"/>
</g>
<!-- API/DeviceInfoCollector.ts -->
<g id="node3" class="node"><title>API/DeviceInfoCollector.ts</title>
<path fill="none" stroke="#cfffac" d="M1336.33,-464C1336.33,-464 1166.67,-464 1166.67,-464 1162.83,-464 1159,-460.167 1159,-456.333 1159,-456.333 1159,-448.667 1159,-448.667 1159,-444.833 1162.83,-441 1166.67,-441 1166.67,-441 1336.33,-441 1336.33,-441 1340.17,-441 1344,-444.833 1344,-448.667 1344,-448.667 1344,-456.333 1344,-456.333 1344,-460.167 1340.17,-464 1336.33,-464"/>
<text text-anchor="middle" x="1251.5" y="-448.8" font-family="Arial" font-size="14.00" fill="#cfffac">API/DeviceInfoCollector.ts</text>
</g>
<!-- API/DeviceInfoExample.ts -->
<g id="node4" class="node"><title>API/DeviceInfoExample.ts</title>
<path fill="none" stroke="#c6c5fe" d="M1092.33,-582C1092.33,-582 923.667,-582 923.667,-582 919.833,-582 916,-578.167 916,-574.333 916,-574.333 916,-566.667 916,-566.667 916,-562.833 919.833,-559 923.667,-559 923.667,-559 1092.33,-559 1092.33,-559 1096.17,-559 1100,-562.833 1100,-566.667 1100,-566.667 1100,-574.333 1100,-574.333 1100,-578.167 1096.17,-582 1092.33,-582"/>
<text text-anchor="middle" x="1008" y="-566.8" font-family="Arial" font-size="14.00" fill="#c6c5fe">API/DeviceInfoExample.ts</text>
</g>
<!-- API/DeviceInfoExample.ts&#45;&gt;API/DeviceInfoCollector.ts -->
<g id="edge2" class="edge"><title>API/DeviceInfoExample.ts&#45;&gt;API/DeviceInfoCollector.ts</title>
<path fill="none" stroke="#757575" d="M1079.78,-558.996C1094.43,-555.343 1109.5,-550.605 1123,-544.5 1164.83,-525.587 1206.72,-491.821 1230.55,-470.878"/>
<polygon fill="#757575" stroke="#757575" points="1233.06,-473.322 1238.19,-464.05 1228.4,-468.102 1233.06,-473.322"/>
</g>
<!-- API/EncryptedApiClient.ts -->
<g id="node5" class="node"><title>API/EncryptedApiClient.ts</title>
<path fill="none" stroke="#c6c5fe" d="M1090.83,-464C1090.83,-464 925.167,-464 925.167,-464 921.333,-464 917.5,-460.167 917.5,-456.333 917.5,-456.333 917.5,-448.667 917.5,-448.667 917.5,-444.833 921.333,-441 925.167,-441 925.167,-441 1090.83,-441 1090.83,-441 1094.67,-441 1098.5,-444.833 1098.5,-448.667 1098.5,-448.667 1098.5,-456.333 1098.5,-456.333 1098.5,-460.167 1094.67,-464 1090.83,-464"/>
<text text-anchor="middle" x="1008" y="-448.8" font-family="Arial" font-size="14.00" fill="#c6c5fe">API/EncryptedApiClient.ts</text>
</g>
<!-- API/EncryptedApiClient.ts&#45;&gt;API/ApiConfig.ts -->
<g id="edge3" class="edge"><title>API/EncryptedApiClient.ts&#45;&gt;API/ApiConfig.ts</title>
<path fill="none" stroke="#757575" d="M1031.78,-440.823C1055.16,-428.585 1092.35,-408.402 1123,-388.5 1161.11,-363.754 1202.92,-331.558 1227.92,-311.721"/>
<polygon fill="#757575" stroke="#757575" points="1230.39,-314.225 1236.03,-305.252 1226.03,-308.753 1230.39,-314.225"/>
</g>
<!-- API/EncryptedApiClient.ts&#45;&gt;API/DeviceInfoCollector.ts -->
<g id="edge4" class="edge"><title>API/EncryptedApiClient.ts&#45;&gt;API/DeviceInfoCollector.ts</title>
<path fill="none" stroke="#757575" d="M1098.58,-452.5C1114.81,-452.5 1131.85,-452.5 1148.41,-452.5"/>
<polygon fill="#757575" stroke="#757575" points="1148.64,-456 1158.64,-452.5 1148.64,-449 1148.64,-456"/>
</g>
<!-- API/EncryptedApiExample.ts -->
<g id="node6" class="node"><title>API/EncryptedApiExample.ts</title>
<path fill="none" stroke="#c6c5fe" d="M824.333,-463C824.333,-463 639.667,-463 639.667,-463 635.833,-463 632,-459.167 632,-455.333 632,-455.333 632,-447.667 632,-447.667 632,-443.833 635.833,-440 639.667,-440 639.667,-440 824.333,-440 824.333,-440 828.167,-440 832,-443.833 832,-447.667 832,-447.667 832,-455.333 832,-455.333 832,-459.167 828.167,-463 824.333,-463"/>
<text text-anchor="middle" x="732" y="-447.8" font-family="Arial" font-size="14.00" fill="#c6c5fe">API/EncryptedApiExample.ts</text>
</g>
<!-- API/EncryptedApiExample.ts&#45;&gt;API/EncryptedApiClient.ts -->
<g id="edge5" class="edge"><title>API/EncryptedApiExample.ts&#45;&gt;API/EncryptedApiClient.ts</title>
<path fill="none" stroke="#757575" d="M832.308,-451.862C856.563,-451.951 882.528,-452.046 906.824,-452.134"/>
<polygon fill="#757575" stroke="#757575" points="907.112,-455.635 917.124,-452.172 907.137,-448.635 907.112,-455.635"/>
</g>
<!-- API/LoginService.ts -->
<g id="node7" class="node"><title>API/LoginService.ts</title>
<path fill="none" stroke="#c6c5fe" d="M795.833,-405C795.833,-405 668.167,-405 668.167,-405 664.333,-405 660.5,-401.167 660.5,-397.333 660.5,-397.333 660.5,-389.667 660.5,-389.667 660.5,-385.833 664.333,-382 668.167,-382 668.167,-382 795.833,-382 795.833,-382 799.667,-382 803.5,-385.833 803.5,-389.667 803.5,-389.667 803.5,-397.333 803.5,-397.333 803.5,-401.167 799.667,-405 795.833,-405"/>
<text text-anchor="middle" x="732" y="-389.8" font-family="Arial" font-size="14.00" fill="#c6c5fe">API/LoginService.ts</text>
</g>
<!-- API/LoginService.ts&#45;&gt;API/ApiConfig.ts -->
<g id="edge6" class="edge"><title>API/LoginService.ts&#45;&gt;API/ApiConfig.ts</title>
<path fill="none" stroke="#757575" d="M803.741,-393.713C882.931,-392.287 1014.39,-384.905 1123,-354.5 1159.04,-344.411 1197.39,-324.692 1222.51,-310.399"/>
<polygon fill="#757575" stroke="#757575" points="1224.55,-313.258 1231.45,-305.218 1221.05,-307.201 1224.55,-313.258"/>
</g>
<!-- API/LoginService.ts&#45;&gt;API/DeviceInfoCollector.ts -->
<g id="edge7" class="edge"><title>API/LoginService.ts&#45;&gt;API/DeviceInfoCollector.ts</title>
<path fill="none" stroke="#757575" d="M803.614,-398.967C881.86,-405.354 1011.7,-416.928 1123,-431.5 1140.11,-433.74 1158.44,-436.529 1175.72,-439.335"/>
<polygon fill="#757575" stroke="#757575" points="1175.32,-442.817 1185.76,-440.986 1176.46,-435.91 1175.32,-442.817"/>
</g>
<!-- API/LoginService.ts&#45;&gt;API/EncryptedApiClient.ts -->
<g id="edge8" class="edge"><title>API/LoginService.ts&#45;&gt;API/EncryptedApiClient.ts</title>
<path fill="none" stroke="#757575" d="M786.48,-405.016C831.408,-414.69 895.715,-428.537 943.3,-438.784"/>
<polygon fill="#757575" stroke="#757575" points="942.674,-442.229 953.187,-440.913 944.148,-435.386 942.674,-442.229"/>
</g>
<!-- API/LoginServiceExample.ts -->
<g id="node8" class="node"><title>API/LoginServiceExample.ts</title>
<path fill="none" stroke="#c6c5fe" d="M535.333,-405C535.333,-405 352.667,-405 352.667,-405 348.833,-405 345,-401.167 345,-397.333 345,-397.333 345,-389.667 345,-389.667 345,-385.833 348.833,-382 352.667,-382 352.667,-382 535.333,-382 535.333,-382 539.167,-382 543,-385.833 543,-389.667 543,-389.667 543,-397.333 543,-397.333 543,-401.167 539.167,-405 535.333,-405"/>
<text text-anchor="middle" x="444" y="-389.8" font-family="Arial" font-size="14.00" fill="#c6c5fe">API/LoginServiceExample.ts</text>
</g>
<!-- API/LoginServiceExample.ts&#45;&gt;API/LoginService.ts -->
<g id="edge9" class="edge"><title>API/LoginServiceExample.ts&#45;&gt;API/LoginService.ts</title>
<path fill="none" stroke="#757575" d="M543.025,-393.5C577.902,-393.5 616.753,-393.5 650.04,-393.5"/>
<polygon fill="#757575" stroke="#757575" points="650.181,-397 660.181,-393.5 650.181,-390 650.181,-397"/>
</g>
<!-- API/PangleAdExample.ts -->
<g id="node9" class="node"><title>API/PangleAdExample.ts</title>
<path fill="none" stroke="#c6c5fe" d="M524.833,-64C524.833,-64 363.167,-64 363.167,-64 359.333,-64 355.5,-60.1667 355.5,-56.3333 355.5,-56.3333 355.5,-48.6667 355.5,-48.6667 355.5,-44.8333 359.333,-41 363.167,-41 363.167,-41 524.833,-41 524.833,-41 528.667,-41 532.5,-44.8333 532.5,-48.6667 532.5,-48.6667 532.5,-56.3333 532.5,-56.3333 532.5,-60.1667 528.667,-64 524.833,-64"/>
<text text-anchor="middle" x="444" y="-48.8" font-family="Arial" font-size="14.00" fill="#c6c5fe">API/PangleAdExample.ts</text>
</g>
<!-- API/PangleAdManager.ts -->
<g id="node10" class="node"><title>API/PangleAdManager.ts</title>
<path fill="none" stroke="#cfffac" d="M812.333,-64C812.333,-64 651.667,-64 651.667,-64 647.833,-64 644,-60.1667 644,-56.3333 644,-56.3333 644,-48.6667 644,-48.6667 644,-44.8333 647.833,-41 651.667,-41 651.667,-41 812.333,-41 812.333,-41 816.167,-41 820,-44.8333 820,-48.6667 820,-48.6667 820,-56.3333 820,-56.3333 820,-60.1667 816.167,-64 812.333,-64"/>
<text text-anchor="middle" x="732" y="-48.8" font-family="Arial" font-size="14.00" fill="#cfffac">API/PangleAdManager.ts</text>
</g>
<!-- API/PangleAdExample.ts&#45;&gt;API/PangleAdManager.ts -->
<g id="edge10" class="edge"><title>API/PangleAdExample.ts&#45;&gt;API/PangleAdManager.ts</title>
<path fill="none" stroke="#757575" d="M532.753,-52.5C564.747,-52.5 601.1,-52.5 633.862,-52.5"/>
<polygon fill="#757575" stroke="#757575" points="633.905,-56.0001 643.905,-52.5 633.905,-49.0001 633.905,-56.0001"/>
</g>
<!-- API/RiskDetectionExample.ts -->
<g id="node11" class="node"><title>API/RiskDetectionExample.ts</title>
<path fill="none" stroke="#c6c5fe" d="M537.833,-524C537.833,-524 350.167,-524 350.167,-524 346.333,-524 342.5,-520.167 342.5,-516.333 342.5,-516.333 342.5,-508.667 342.5,-508.667 342.5,-504.833 346.333,-501 350.167,-501 350.167,-501 537.833,-501 537.833,-501 541.667,-501 545.5,-504.833 545.5,-508.667 545.5,-508.667 545.5,-516.333 545.5,-516.333 545.5,-520.167 541.667,-524 537.833,-524"/>
<text text-anchor="middle" x="444" y="-508.8" font-family="Arial" font-size="14.00" fill="#c6c5fe">API/RiskDetectionExample.ts</text>
</g>
<!-- API/RiskDetectionService.ts -->
<g id="node12" class="node"><title>API/RiskDetectionService.ts</title>
<path fill="none" stroke="#c6c5fe" d="M822.333,-504C822.333,-504 641.667,-504 641.667,-504 637.833,-504 634,-500.167 634,-496.333 634,-496.333 634,-488.667 634,-488.667 634,-484.833 637.833,-481 641.667,-481 641.667,-481 822.333,-481 822.333,-481 826.167,-481 830,-484.833 830,-488.667 830,-488.667 830,-496.333 830,-496.333 830,-500.167 826.167,-504 822.333,-504"/>
<text text-anchor="middle" x="732" y="-488.8" font-family="Arial" font-size="14.00" fill="#c6c5fe">API/RiskDetectionService.ts</text>
</g>
<!-- API/RiskDetectionExample.ts&#45;&gt;API/RiskDetectionService.ts -->
<g id="edge11" class="edge"><title>API/RiskDetectionExample.ts&#45;&gt;API/RiskDetectionService.ts</title>
<path fill="none" stroke="#757575" d="M545.833,-505.449C571.105,-503.681 598.306,-501.779 623.872,-499.991"/>
<polygon fill="#757575" stroke="#757575" points="624.227,-503.475 633.958,-499.286 623.739,-496.492 624.227,-503.475"/>
</g>
<!-- API/RiskDetectionService.ts&#45;&gt;API/ApiConfig.ts -->
<g id="edge12" class="edge"><title>API/RiskDetectionService.ts&#45;&gt;API/ApiConfig.ts</title>
<path fill="none" stroke="#757575" d="M830.376,-497.004C929.244,-499.912 1074.48,-499.107 1123,-472.5 1139.79,-463.295 1208.63,-358.481 1237.58,-313.646"/>
<polygon fill="#757575" stroke="#757575" points="1240.65,-315.347 1243.12,-305.045 1234.76,-311.557 1240.65,-315.347"/>
</g>
<!-- API/RiskDetectionService.ts&#45;&gt;API/DeviceInfoCollector.ts -->
<g id="edge13" class="edge"><title>API/RiskDetectionService.ts&#45;&gt;API/DeviceInfoCollector.ts</title>
<path fill="none" stroke="#757575" d="M797.942,-504.041C875.974,-515.804 1010.46,-529.35 1123,-506.5 1158.3,-499.332 1195.96,-482.052 1221.13,-468.955"/>
<polygon fill="#757575" stroke="#757575" points="1222.94,-471.955 1230.13,-464.17 1219.65,-465.774 1222.94,-471.955"/>
</g>
<!-- API/RiskDetectionService.ts&#45;&gt;API/EncryptedApiClient.ts -->
<g id="edge14" class="edge"><title>API/RiskDetectionService.ts&#45;&gt;API/EncryptedApiClient.ts</title>
<path fill="none" stroke="#757575" d="M811.885,-480.984C845.124,-476.132 883.965,-470.461 918.203,-465.463"/>
<polygon fill="#757575" stroke="#757575" points="918.808,-468.912 928.198,-464.004 917.797,-461.985 918.808,-468.912"/>
</g>
<!-- API/WeChatLogin.ts -->
<g id="node13" class="node"><title>API/WeChatLogin.ts</title>
<path fill="none" stroke="#c6c5fe" d="M1073.33,-187C1073.33,-187 942.667,-187 942.667,-187 938.833,-187 935,-183.167 935,-179.333 935,-179.333 935,-171.667 935,-171.667 935,-167.833 938.833,-164 942.667,-164 942.667,-164 1073.33,-164 1073.33,-164 1077.17,-164 1081,-167.833 1081,-171.667 1081,-171.667 1081,-179.333 1081,-179.333 1081,-183.167 1077.17,-187 1073.33,-187"/>
<text text-anchor="middle" x="1008" y="-171.8" font-family="Arial" font-size="14.00" fill="#c6c5fe">API/WeChatLogin.ts</text>
</g>
<!-- API/WeChatLogin.ts&#45;&gt;API/ApiConfig.ts -->
<g id="edge15" class="edge"><title>API/WeChatLogin.ts&#45;&gt;API/ApiConfig.ts</title>
<path fill="none" stroke="#757575" d="M1079.78,-187.004C1094.43,-190.657 1109.5,-195.395 1123,-201.5 1164.83,-220.413 1206.72,-254.179 1230.55,-275.122"/>
<polygon fill="#757575" stroke="#757575" points="1228.4,-277.898 1238.19,-281.95 1233.06,-272.678 1228.4,-277.898"/>
</g>
<!-- API/WeChatLoginExample.ts -->
<g id="node14" class="node"><title>API/WeChatLoginExample.ts</title>
<path fill="none" stroke="#c6c5fe" d="M825.333,-226C825.333,-226 638.667,-226 638.667,-226 634.833,-226 631,-222.167 631,-218.333 631,-218.333 631,-210.667 631,-210.667 631,-206.833 634.833,-203 638.667,-203 638.667,-203 825.333,-203 825.333,-203 829.167,-203 833,-206.833 833,-210.667 833,-210.667 833,-218.333 833,-218.333 833,-222.167 829.167,-226 825.333,-226"/>
<text text-anchor="middle" x="732" y="-210.8" font-family="Arial" font-size="14.00" fill="#c6c5fe">API/WeChatLoginExample.ts</text>
</g>
<!-- API/WeChatLoginExample.ts&#45;&gt;API/ApiConfig.ts -->
<g id="edge16" class="edge"><title>API/WeChatLoginExample.ts&#45;&gt;API/ApiConfig.ts</title>
<path fill="none" stroke="#757575" d="M833.337,-211.748C912.922,-211.752 1026.44,-216.654 1123,-239.5 1157.64,-247.696 1194.87,-264.478 1220.1,-277.171"/>
<polygon fill="#757575" stroke="#757575" points="1218.65,-280.364 1229.15,-281.809 1221.85,-274.134 1218.65,-280.364"/>
</g>
<!-- API/WeChatLoginExample.ts&#45;&gt;API/WeChatLogin.ts -->
<g id="edge17" class="edge"><title>API/WeChatLoginExample.ts&#45;&gt;API/WeChatLogin.ts</title>
<path fill="none" stroke="#757575" d="M814.097,-202.957C848.998,-197.989 889.742,-192.19 924.768,-187.204"/>
<polygon fill="#757575" stroke="#757575" points="925.556,-190.628 934.963,-185.753 924.569,-183.698 925.556,-190.628"/>
</g>
<!-- Network/AccountInfoExample.ts -->
<g id="node15" class="node"><title>Network/AccountInfoExample.ts</title>
<path fill="none" stroke="#c6c5fe" d="M833.333,-146C833.333,-146 630.667,-146 630.667,-146 626.833,-146 623,-142.167 623,-138.333 623,-138.333 623,-130.667 623,-130.667 623,-126.833 626.833,-123 630.667,-123 630.667,-123 833.333,-123 833.333,-123 837.167,-123 841,-126.833 841,-130.667 841,-130.667 841,-138.333 841,-138.333 841,-142.167 837.167,-146 833.333,-146"/>
<text text-anchor="middle" x="732" y="-130.8" font-family="Arial" font-size="14.00" fill="#c6c5fe">Network/AccountInfoExample.ts</text>
</g>
<!-- Network/AccountInfoExample.ts&#45;&gt;API/WeChatLogin.ts -->
<g id="edge18" class="edge"><title>Network/AccountInfoExample.ts&#45;&gt;API/WeChatLogin.ts</title>
<path fill="none" stroke="#757575" d="M810.053,-146.03C845.79,-151.377 888.306,-157.739 924.673,-163.181"/>
<polygon fill="#757575" stroke="#757575" points="924.348,-166.671 934.756,-164.69 925.384,-159.748 924.348,-166.671"/>
</g>
<!-- Network/AccountInfoManager.ts -->
<g id="node16" class="node"><title>Network/AccountInfoManager.ts</title>
<path fill="none" stroke="#c6c5fe" d="M1109.33,-146C1109.33,-146 906.667,-146 906.667,-146 902.833,-146 899,-142.167 899,-138.333 899,-138.333 899,-130.667 899,-130.667 899,-126.833 902.833,-123 906.667,-123 906.667,-123 1109.33,-123 1109.33,-123 1113.17,-123 1117,-126.833 1117,-130.667 1117,-130.667 1117,-138.333 1117,-138.333 1117,-142.167 1113.17,-146 1109.33,-146"/>
<text text-anchor="middle" x="1008" y="-130.8" font-family="Arial" font-size="14.00" fill="#c6c5fe">Network/AccountInfoManager.ts</text>
</g>
<!-- Network/AccountInfoExample.ts&#45;&gt;Network/AccountInfoManager.ts -->
<g id="edge19" class="edge"><title>Network/AccountInfoExample.ts&#45;&gt;Network/AccountInfoManager.ts</title>
<path fill="none" stroke="#757575" d="M841.292,-134.5C856.753,-134.5 872.725,-134.5 888.371,-134.5"/>
<polygon fill="#757575" stroke="#757575" points="888.597,-138 898.597,-134.5 888.597,-131 888.597,-138"/>
</g>
<!-- Network/AccountInfoManager.ts&#45;&gt;API/ApiConfig.ts -->
<g id="edge20" class="edge"><title>Network/AccountInfoManager.ts&#45;&gt;API/ApiConfig.ts</title>
<path fill="none" stroke="#757575" d="M1103.69,-146.029C1110.41,-148.374 1116.92,-151.17 1123,-154.5 1175.58,-183.298 1218.16,-241.987 1238.15,-273.092"/>
<polygon fill="#757575" stroke="#757575" points="1235.34,-275.19 1243.62,-281.797 1241.26,-271.467 1235.34,-275.19"/>
</g>
<!-- scripts/AgreementDialogController.ts -->
<g id="node17" class="node"><title>scripts/AgreementDialogController.ts</title>
<path fill="none" stroke="#cfffac" d="M849.333,-23C849.333,-23 614.667,-23 614.667,-23 610.833,-23 607,-19.1667 607,-15.3333 607,-15.3333 607,-7.66667 607,-7.66667 607,-3.83333 610.833,-0 614.667,-0 614.667,-0 849.333,-0 849.333,-0 853.167,-0 857,-3.83333 857,-7.66667 857,-7.66667 857,-15.3333 857,-15.3333 857,-19.1667 853.167,-23 849.333,-23"/>
<text text-anchor="middle" x="732" y="-7.8" font-family="Arial" font-size="14.00" fill="#cfffac">scripts/AgreementDialogController.ts</text>
</g>
<!-- scripts/AgreementDialogExample.ts -->
<g id="node18" class="node"><title>scripts/AgreementDialogExample.ts</title>
<path fill="none" stroke="#c6c5fe" d="M558.333,-23C558.333,-23 329.667,-23 329.667,-23 325.833,-23 322,-19.1667 322,-15.3333 322,-15.3333 322,-7.66667 322,-7.66667 322,-3.83333 325.833,-0 329.667,-0 329.667,-0 558.333,-0 558.333,-0 562.167,-0 566,-3.83333 566,-7.66667 566,-7.66667 566,-15.3333 566,-15.3333 566,-19.1667 562.167,-23 558.333,-23"/>
<text text-anchor="middle" x="444" y="-7.8" font-family="Arial" font-size="14.00" fill="#c6c5fe">scripts/AgreementDialogExample.ts</text>
</g>
<!-- scripts/AgreementDialogExample.ts&#45;&gt;scripts/AgreementDialogController.ts -->
<g id="edge21" class="edge"><title>scripts/AgreementDialogExample.ts&#45;&gt;scripts/AgreementDialogController.ts</title>
<path fill="none" stroke="#757575" d="M566.29,-11.5C576.338,-11.5 586.532,-11.5 596.669,-11.5"/>
<polygon fill="#757575" stroke="#757575" points="596.778,-15.0001 606.778,-11.5 596.778,-8.0001 596.778,-15.0001"/>
</g>
<!-- scripts/AutoWeChatLoginExample.ts -->
<g id="node19" class="node"><title>scripts/AutoWeChatLoginExample.ts</title>
<path fill="none" stroke="#cfffac" d="M257.333,-545C257.333,-545 23.6667,-545 23.6667,-545 19.8333,-545 16,-541.167 16,-537.333 16,-537.333 16,-529.667 16,-529.667 16,-525.833 19.8333,-522 23.6667,-522 23.6667,-522 257.333,-522 257.333,-522 261.167,-522 265,-525.833 265,-529.667 265,-529.667 265,-537.333 265,-537.333 265,-541.167 261.167,-545 257.333,-545"/>
<text text-anchor="middle" x="140.5" y="-529.8" font-family="Arial" font-size="14.00" fill="#cfffac">scripts/AutoWeChatLoginExample.ts</text>
</g>
<!-- scripts/EffectContainerPool.ts -->
<g id="node20" class="node"><title>scripts/EffectContainerPool.ts</title>
<path fill="none" stroke="#cfffac" d="M1103.33,-105C1103.33,-105 912.667,-105 912.667,-105 908.833,-105 905,-101.167 905,-97.3333 905,-97.3333 905,-89.6667 905,-89.6667 905,-85.8333 908.833,-82 912.667,-82 912.667,-82 1103.33,-82 1103.33,-82 1107.17,-82 1111,-85.8333 1111,-89.6667 1111,-89.6667 1111,-97.3333 1111,-97.3333 1111,-101.167 1107.17,-105 1103.33,-105"/>
<text text-anchor="middle" x="1008" y="-89.8" font-family="Arial" font-size="14.00" fill="#cfffac">scripts/EffectContainerPool.ts</text>
</g>
<!-- scripts/GameProgressManager.ts -->
<g id="node21" class="node"><title>scripts/GameProgressManager.ts</title>
<path fill="none" stroke="#c6c5fe" d="M1115.33,-346C1115.33,-346 900.667,-346 900.667,-346 896.833,-346 893,-342.167 893,-338.333 893,-338.333 893,-330.667 893,-330.667 893,-326.833 896.833,-323 900.667,-323 900.667,-323 1115.33,-323 1115.33,-323 1119.17,-323 1123,-326.833 1123,-330.667 1123,-330.667 1123,-338.333 1123,-338.333 1123,-342.167 1119.17,-346 1115.33,-346"/>
<text text-anchor="middle" x="1008" y="-330.8" font-family="Arial" font-size="14.00" fill="#c6c5fe">scripts/GameProgressManager.ts</text>
</g>
<!-- scripts/GameProgressManager.ts&#45;&gt;API/ApiConfig.ts -->
<g id="edge22" class="edge"><title>scripts/GameProgressManager.ts&#45;&gt;API/ApiConfig.ts</title>
<path fill="none" stroke="#757575" d="M1076.91,-322.97C1109.28,-317.475 1147.96,-310.909 1180.58,-305.371"/>
<polygon fill="#757575" stroke="#757575" points="1181.22,-308.812 1190.49,-303.688 1180.05,-301.911 1181.22,-308.812"/>
</g>
<!-- scripts/GameProgressManager.ts&#45;&gt;API/DeviceInfoCollector.ts -->
<g id="edge23" class="edge"><title>scripts/GameProgressManager.ts&#45;&gt;API/DeviceInfoCollector.ts</title>
<path fill="none" stroke="#757575" d="M1032.6,-346.029C1075.97,-367.222 1168.44,-412.404 1217.82,-436.533"/>
<polygon fill="#757575" stroke="#757575" points="1216.29,-439.679 1226.81,-440.924 1219.36,-433.389 1216.29,-439.679"/>
</g>
<!-- scripts/ItemData.ts -->
<g id="node22" class="node"><title>scripts/ItemData.ts</title>
<path fill="none" stroke="#cfffac" d="M1067.83,-64C1067.83,-64 948.167,-64 948.167,-64 944.333,-64 940.5,-60.1667 940.5,-56.3333 940.5,-56.3333 940.5,-48.6667 940.5,-48.6667 940.5,-44.8333 944.333,-41 948.167,-41 948.167,-41 1067.83,-41 1067.83,-41 1071.67,-41 1075.5,-44.8333 1075.5,-48.6667 1075.5,-48.6667 1075.5,-56.3333 1075.5,-56.3333 1075.5,-60.1667 1071.67,-64 1067.83,-64"/>
<text text-anchor="middle" x="1008" y="-48.8" font-family="Arial" font-size="14.00" fill="#cfffac">scripts/ItemData.ts</text>
</g>
<!-- scripts/ItemDropGame.ts -->
<g id="node23" class="node"><title>scripts/ItemDropGame.ts</title>
<path fill="none" stroke="#c6c5fe" d="M812.333,-105C812.333,-105 651.667,-105 651.667,-105 647.833,-105 644,-101.167 644,-97.3333 644,-97.3333 644,-89.6667 644,-89.6667 644,-85.8333 647.833,-82 651.667,-82 651.667,-82 812.333,-82 812.333,-82 816.167,-82 820,-85.8333 820,-89.6667 820,-89.6667 820,-97.3333 820,-97.3333 820,-101.167 816.167,-105 812.333,-105"/>
<text text-anchor="middle" x="732" y="-89.8" font-family="Arial" font-size="14.00" fill="#c6c5fe">scripts/ItemDropGame.ts</text>
</g>
<!-- scripts/ItemDropGame.ts&#45;&gt;scripts/EffectContainerPool.ts -->
<g id="edge24" class="edge"><title>scripts/ItemDropGame.ts&#45;&gt;scripts/EffectContainerPool.ts</title>
<path fill="none" stroke="#757575" d="M820.072,-93.5C843.761,-93.5 869.757,-93.5 894.632,-93.5"/>
<polygon fill="#757575" stroke="#757575" points="894.842,-97.0001 904.842,-93.5 894.842,-90.0001 894.842,-97.0001"/>
</g>
<!-- scripts/ItemDropGame.ts&#45;&gt;scripts/GameProgressManager.ts -->
<g id="edge25" class="edge"><title>scripts/ItemDropGame.ts&#45;&gt;scripts/GameProgressManager.ts</title>
<path fill="none" stroke="#757575" d="M820.189,-93.7023C833.915,-97.3918 846.887,-103.569 857,-113.5 921.442,-176.781 829.266,-249.506 893,-313.5 894.132,-314.636 895.303,-315.722 896.511,-316.76"/>
<polygon fill="#757575" stroke="#757575" points="894.832,-319.867 904.975,-322.927 898.955,-314.209 894.832,-319.867"/>
</g>
<!-- scripts/ItemDropGame.ts&#45;&gt;scripts/ItemData.ts -->
<g id="edge26" class="edge"><title>scripts/ItemDropGame.ts&#45;&gt;scripts/ItemData.ts</title>
<path fill="none" stroke="#757575" d="M810.053,-81.9701C847.526,-76.3628 892.453,-69.6403 929.928,-64.0326"/>
<polygon fill="#757575" stroke="#757575" points="930.916,-67.4238 940.288,-62.4824 929.88,-60.5009 930.916,-67.4238"/>
</g>
<!-- scripts/RewardEffectController.ts -->
<g id="node24" class="node"><title>scripts/RewardEffectController.ts</title>
<path fill="none" stroke="#cfffac" d="M1113.33,-23C1113.33,-23 902.667,-23 902.667,-23 898.833,-23 895,-19.1667 895,-15.3333 895,-15.3333 895,-7.66667 895,-7.66667 895,-3.83333 898.833,-0 902.667,-0 902.667,-0 1113.33,-0 1113.33,-0 1117.17,-0 1121,-3.83333 1121,-7.66667 1121,-7.66667 1121,-15.3333 1121,-15.3333 1121,-19.1667 1117.17,-23 1113.33,-23"/>
<text text-anchor="middle" x="1008" y="-7.8" font-family="Arial" font-size="14.00" fill="#cfffac">scripts/RewardEffectController.ts</text>
</g>
<!-- scripts/ItemDropGame.ts&#45;&gt;scripts/RewardEffectController.ts -->
<g id="edge27" class="edge"><title>scripts/ItemDropGame.ts&#45;&gt;scripts/RewardEffectController.ts</title>
<path fill="none" stroke="#757575" d="M820.292,-86.4845C833.1,-83.2771 845.751,-78.7776 857,-72.5 878.176,-60.6829 871.859,-43.3796 893,-31.5 895.934,-29.8512 898.972,-28.3325 902.089,-26.934"/>
<polygon fill="#757575" stroke="#757575" points="903.674,-30.0689 911.645,-23.089 901.061,-23.5749 903.674,-30.0689"/>
</g>
<!-- scripts/LoginController.ts -->
<g id="node25" class="node"><title>scripts/LoginController.ts</title>
<path fill="none" stroke="#c6c5fe" d="M523.333,-226C523.333,-226 364.667,-226 364.667,-226 360.833,-226 357,-222.167 357,-218.333 357,-218.333 357,-210.667 357,-210.667 357,-206.833 360.833,-203 364.667,-203 364.667,-203 523.333,-203 523.333,-203 527.167,-203 531,-206.833 531,-210.667 531,-210.667 531,-218.333 531,-218.333 531,-222.167 527.167,-226 523.333,-226"/>
<text text-anchor="middle" x="444" y="-210.8" font-family="Arial" font-size="14.00" fill="#c6c5fe">scripts/LoginController.ts</text>
</g>
<!-- scripts/LoginController.ts&#45;&gt;API/ApiConfig.ts -->
<g id="edge28" class="edge"><title>scripts/LoginController.ts&#45;&gt;API/ApiConfig.ts</title>
<path fill="none" stroke="#757575" d="M531.088,-225.929C555.59,-228.964 582.323,-232.07 607,-234.5 835.847,-257.039 894.655,-245.343 1123,-272.5 1141.69,-274.723 1161.83,-277.746 1180.46,-280.804"/>
<polygon fill="#757575" stroke="#757575" points="1179.9,-284.259 1190.34,-282.452 1181.05,-277.354 1179.9,-284.259"/>
</g>
<!-- scripts/LoginController.ts&#45;&gt;API/LoginService.ts -->
<g id="edge29" class="edge"><title>scripts/LoginController.ts&#45;&gt;API/LoginService.ts</title>
<path fill="none" stroke="#757575" d="M455.184,-226.071C479.092,-252.558 541.744,-318.11 607,-354.5 625.886,-365.032 648.006,-373.144 668.294,-379.171"/>
<polygon fill="#757575" stroke="#757575" points="667.507,-382.586 678.084,-381.964 669.428,-375.855 667.507,-382.586"/>
</g>
<!-- scripts/LoginController.ts&#45;&gt;API/PangleAdManager.ts -->
<g id="edge30" class="edge"><title>scripts/LoginController.ts&#45;&gt;API/PangleAdManager.ts</title>
<path fill="none" stroke="#757575" d="M454.122,-202.918C476.69,-175.174 538.303,-104.825 607,-72.5 615.493,-68.5034 624.637,-65.2854 633.971,-62.6971"/>
<polygon fill="#757575" stroke="#757575" points="634.913,-66.0691 643.748,-60.2216 633.195,-59.2832 634.913,-66.0691"/>
</g>
<!-- scripts/LoginController.ts&#45;&gt;API/WeChatLogin.ts -->
<g id="edge31" class="edge"><title>scripts/LoginController.ts&#45;&gt;API/WeChatLogin.ts</title>
<path fill="none" stroke="#757575" d="M523.546,-202.97C550.007,-199.445 579.736,-195.876 607,-193.5 716.745,-183.935 843.899,-179.314 924.854,-177.182"/>
<polygon fill="#757575" stroke="#757575" points="925.076,-180.678 934.983,-176.922 924.896,-173.68 925.076,-180.678"/>
</g>
<!-- scripts/LoginController.ts&#45;&gt;scripts/AgreementDialogController.ts -->
<g id="edge32" class="edge"><title>scripts/LoginController.ts&#45;&gt;scripts/AgreementDialogController.ts</title>
<path fill="none" stroke="#757575" d="M455.475,-202.737C477.103,-178.44 528.251,-120.931 571,-72.5 587.047,-54.3195 585.778,-43.2338 607,-31.5 610.05,-29.8134 613.203,-28.2595 616.434,-26.8282"/>
<polygon fill="#757575" stroke="#757575" points="617.74,-30.0755 625.724,-23.1111 615.139,-23.5764 617.74,-30.0755"/>
</g>
<!-- scripts/LoginController.ts&#45;&gt;scripts/GameProgressManager.ts -->
<g id="edge33" class="edge"><title>scripts/LoginController.ts&#45;&gt;scripts/GameProgressManager.ts</title>
<path fill="none" stroke="#757575" d="M475.034,-226.105C507.242,-238.172 560.092,-256.89 607,-268.5 664.384,-282.703 818.686,-306.684 918.009,-321.496"/>
<polygon fill="#757575" stroke="#757575" points="917.635,-324.979 928.041,-322.989 918.665,-318.055 917.635,-324.979"/>
</g>
<!-- scripts/MinePageUIController.ts -->
<g id="node26" class="node"><title>scripts/MinePageUIController.ts</title>
<path fill="none" stroke="#cfffac" d="M241.333,-586C241.333,-586 39.6667,-586 39.6667,-586 35.8333,-586 32,-582.167 32,-578.333 32,-578.333 32,-570.667 32,-570.667 32,-566.833 35.8333,-563 39.6667,-563 39.6667,-563 241.333,-563 241.333,-563 245.167,-563 249,-566.833 249,-570.667 249,-570.667 249,-578.333 249,-578.333 249,-582.167 245.167,-586 241.333,-586"/>
<text text-anchor="middle" x="140.5" y="-570.8" font-family="Arial" font-size="14.00" fill="#cfffac">scripts/MinePageUIController.ts</text>
</g>
<!-- scripts/MultiplierSelector.ts -->
<g id="node27" class="node"><title>scripts/MultiplierSelector.ts</title>
<path fill="none" stroke="#cfffac" d="M225.833,-627C225.833,-627 55.1667,-627 55.1667,-627 51.3333,-627 47.5,-623.167 47.5,-619.333 47.5,-619.333 47.5,-611.667 47.5,-611.667 47.5,-607.833 51.3333,-604 55.1667,-604 55.1667,-604 225.833,-604 225.833,-604 229.667,-604 233.5,-607.833 233.5,-611.667 233.5,-611.667 233.5,-619.333 233.5,-619.333 233.5,-623.167 229.667,-627 225.833,-627"/>
<text text-anchor="middle" x="140.5" y="-611.8" font-family="Arial" font-size="14.00" fill="#cfffac">scripts/MultiplierSelector.ts</text>
</g>
<!-- scripts/PrivacyPolicyViewer.ts -->
<g id="node28" class="node"><title>scripts/PrivacyPolicyViewer.ts</title>
<path fill="none" stroke="#cfffac" d="M235.333,-668C235.333,-668 45.6667,-668 45.6667,-668 41.8333,-668 38,-664.167 38,-660.333 38,-660.333 38,-652.667 38,-652.667 38,-648.833 41.8333,-645 45.6667,-645 45.6667,-645 235.333,-645 235.333,-645 239.167,-645 243,-648.833 243,-652.667 243,-652.667 243,-660.333 243,-660.333 243,-664.167 239.167,-668 235.333,-668"/>
<text text-anchor="middle" x="140.5" y="-652.8" font-family="Arial" font-size="14.00" fill="#cfffac">scripts/PrivacyPolicyViewer.ts</text>
</g>
<!-- scripts/PublicNoticeUIController.ts -->
<g id="node29" class="node"><title>scripts/PublicNoticeUIController.ts</title>
<path fill="none" stroke="#cfffac" d="M249.333,-709C249.333,-709 31.6667,-709 31.6667,-709 27.8333,-709 24,-705.167 24,-701.333 24,-701.333 24,-693.667 24,-693.667 24,-689.833 27.8333,-686 31.6667,-686 31.6667,-686 249.333,-686 249.333,-686 253.167,-686 257,-689.833 257,-693.667 257,-693.667 257,-701.333 257,-701.333 257,-705.167 253.167,-709 249.333,-709"/>
<text text-anchor="middle" x="140.5" y="-693.8" font-family="Arial" font-size="14.00" fill="#cfffac">scripts/PublicNoticeUIController.ts</text>
</g>
<!-- scripts/RiskDetectionTest.ts -->
<g id="node30" class="node"><title>scripts/RiskDetectionTest.ts</title>
<path fill="none" stroke="#c6c5fe" d="M229.833,-504C229.833,-504 51.1667,-504 51.1667,-504 47.3333,-504 43.5,-500.167 43.5,-496.333 43.5,-496.333 43.5,-488.667 43.5,-488.667 43.5,-484.833 47.3333,-481 51.1667,-481 51.1667,-481 229.833,-481 229.833,-481 233.667,-481 237.5,-484.833 237.5,-488.667 237.5,-488.667 237.5,-496.333 237.5,-496.333 237.5,-500.167 233.667,-504 229.833,-504"/>
<text text-anchor="middle" x="140.5" y="-488.8" font-family="Arial" font-size="14.00" fill="#c6c5fe">scripts/RiskDetectionTest.ts</text>
</g>
<!-- scripts/RiskDetectionTest.ts&#45;&gt;API/RiskDetectionExample.ts -->
<g id="edge34" class="edge"><title>scripts/RiskDetectionTest.ts&#45;&gt;API/RiskDetectionExample.ts</title>
<path fill="none" stroke="#757575" d="M237.725,-498.883C267.894,-500.884 301.429,-503.109 332.502,-505.17"/>
<polygon fill="#757575" stroke="#757575" points="332.287,-508.663 342.497,-505.833 332.75,-501.679 332.287,-508.663"/>
</g>
<!-- scripts/RiskDetectionTest.ts&#45;&gt;API/RiskDetectionService.ts -->
<g id="edge35" class="edge"><title>scripts/RiskDetectionTest.ts&#45;&gt;API/RiskDetectionService.ts</title>
<path fill="none" stroke="#757575" d="M237.595,-491.854C263.383,-491.707 291.254,-491.573 317,-491.5 429.888,-491.178 458.112,-491.147 571,-491.5 587.951,-491.553 605.912,-491.638 623.439,-491.736"/>
<polygon fill="#757575" stroke="#757575" points="623.677,-495.237 633.697,-491.795 623.718,-488.237 623.677,-495.237"/>
</g>
<!-- scripts/TreasureGuideUI.ts -->
<g id="node31" class="node"><title>scripts/TreasureGuideUI.ts</title>
<path fill="none" stroke="#cfffac" d="M226.333,-750C226.333,-750 54.6667,-750 54.6667,-750 50.8333,-750 47,-746.167 47,-742.333 47,-742.333 47,-734.667 47,-734.667 47,-730.833 50.8333,-727 54.6667,-727 54.6667,-727 226.333,-727 226.333,-727 230.167,-727 234,-730.833 234,-734.667 234,-734.667 234,-742.333 234,-742.333 234,-746.167 230.167,-750 226.333,-750"/>
<text text-anchor="middle" x="140.5" y="-734.8" font-family="Arial" font-size="14.00" fill="#cfffac">scripts/TreasureGuideUI.ts</text>
</g>
<!-- scripts/WeChatLoginButtonExample.ts -->
<g id="node32" class="node"><title>scripts/WeChatLoginButtonExample.ts</title>
<path fill="none" stroke="#cfffac" d="M262.833,-791C262.833,-791 18.1667,-791 18.1667,-791 14.3333,-791 10.5,-787.167 10.5,-783.333 10.5,-783.333 10.5,-775.667 10.5,-775.667 10.5,-771.833 14.3333,-768 18.1667,-768 18.1667,-768 262.833,-768 262.833,-768 266.667,-768 270.5,-771.833 270.5,-775.667 270.5,-775.667 270.5,-783.333 270.5,-783.333 270.5,-787.167 266.667,-791 262.833,-791"/>
<text text-anchor="middle" x="140.5" y="-775.8" font-family="Arial" font-size="14.00" fill="#cfffac">scripts/WeChatLoginButtonExample.ts</text>
</g>
<!-- scripts/WeChatLoginExample.ts -->
<g id="node33" class="node"><title>scripts/WeChatLoginExample.ts</title>
<path fill="none" stroke="#cfffac" d="M242.833,-832C242.833,-832 38.1667,-832 38.1667,-832 34.3333,-832 30.5,-828.167 30.5,-824.333 30.5,-824.333 30.5,-816.667 30.5,-816.667 30.5,-812.833 34.3333,-809 38.1667,-809 38.1667,-809 242.833,-809 242.833,-809 246.667,-809 250.5,-812.833 250.5,-816.667 250.5,-816.667 250.5,-824.333 250.5,-824.333 250.5,-828.167 246.667,-832 242.833,-832"/>
<text text-anchor="middle" x="140.5" y="-816.8" font-family="Arial" font-size="14.00" fill="#cfffac">scripts/WeChatLoginExample.ts</text>
</g>
<!-- scripts/场景跳转/SceneNavigator.ts -->
<g id="node34" class="node"><title>scripts/场景跳转/SceneNavigator.ts</title>
<path fill="none" stroke="#c6c5fe" d="M840.833,-346C840.833,-346 623.167,-346 623.167,-346 619.333,-346 615.5,-342.167 615.5,-338.333 615.5,-338.333 615.5,-330.667 615.5,-330.667 615.5,-326.833 619.333,-323 623.167,-323 623.167,-323 840.833,-323 840.833,-323 844.667,-323 848.5,-326.833 848.5,-330.667 848.5,-330.667 848.5,-338.333 848.5,-338.333 848.5,-342.167 844.667,-346 840.833,-346"/>
<text text-anchor="middle" x="732" y="-330.8" font-family="Arial" font-size="14.00" fill="#c6c5fe">scripts/场景跳转/SceneNavigator.ts</text>
</g>
<!-- scripts/场景跳转/SceneNavigator.ts&#45;&gt;scripts/GameProgressManager.ts -->
<g id="edge36" class="edge"><title>scripts/场景跳转/SceneNavigator.ts&#45;&gt;scripts/GameProgressManager.ts</title>
<path fill="none" stroke="#757575" d="M848.804,-334.5C859.986,-334.5 871.361,-334.5 882.622,-334.5"/>
<polygon fill="#757575" stroke="#757575" points="882.923,-338 892.923,-334.5 882.923,-331 882.923,-338"/>
</g>
<!-- scripts/抽奖主脚本/LuckyDraw.ts -->
<g id="node35" class="node"><title>scripts/抽奖主脚本/LuckyDraw.ts</title>
<path fill="none" stroke="#cfffac" d="M239.833,-873C239.833,-873 41.1667,-873 41.1667,-873 37.3333,-873 33.5,-869.167 33.5,-865.333 33.5,-865.333 33.5,-857.667 33.5,-857.667 33.5,-853.833 37.3333,-850 41.1667,-850 41.1667,-850 239.833,-850 239.833,-850 243.667,-850 247.5,-853.833 247.5,-857.667 247.5,-857.667 247.5,-865.333 247.5,-865.333 247.5,-869.167 243.667,-873 239.833,-873"/>
<text text-anchor="middle" x="140.5" y="-857.8" font-family="Arial" font-size="14.00" fill="#cfffac">scripts/抽奖主脚本/LuckyDraw.ts</text>
</g>
<!-- scripts/按钮显现隐藏/LuckyDrawButton.ts -->
<g id="node36" class="node"><title>scripts/按钮显现隐藏/LuckyDrawButton.ts</title>
<path fill="none" stroke="#cfffac" d="M266.333,-914C266.333,-914 14.6667,-914 14.6667,-914 10.8333,-914 7,-910.167 7,-906.333 7,-906.333 7,-898.667 7,-898.667 7,-894.833 10.8333,-891 14.6667,-891 14.6667,-891 266.333,-891 266.333,-891 270.167,-891 274,-894.833 274,-898.667 274,-898.667 274,-906.333 274,-906.333 274,-910.167 270.167,-914 266.333,-914"/>
<text text-anchor="middle" x="140.5" y="-898.8" font-family="Arial" font-size="14.00" fill="#cfffac">scripts/按钮显现隐藏/LuckyDrawButton.ts</text>
</g>
<!-- scripts/按钮显现隐藏/PopupButtonBinder.ts -->
<g id="node37" class="node"><title>scripts/按钮显现隐藏/PopupButtonBinder.ts</title>
<path fill="none" stroke="#cfffac" d="M273.333,-955C273.333,-955 7.66667,-955 7.66667,-955 3.83333,-955 0,-951.167 0,-947.333 0,-947.333 0,-939.667 0,-939.667 0,-935.833 3.83333,-932 7.66667,-932 7.66667,-932 273.333,-932 273.333,-932 277.167,-932 281,-935.833 281,-939.667 281,-939.667 281,-947.333 281,-947.333 281,-951.167 277.167,-955 273.333,-955"/>
<text text-anchor="middle" x="140.5" y="-939.8" font-family="Arial" font-size="14.00" fill="#cfffac">scripts/按钮显现隐藏/PopupButtonBinder.ts</text>
</g>
<!-- scripts/按钮显现隐藏/PopupController.ts -->
<g id="node38" class="node"><title>scripts/按钮显现隐藏/PopupController.ts</title>
<path fill="none" stroke="#c6c5fe" d="M263.333,-996C263.333,-996 17.6667,-996 17.6667,-996 13.8333,-996 10,-992.167 10,-988.333 10,-988.333 10,-980.667 10,-980.667 10,-976.833 13.8333,-973 17.6667,-973 17.6667,-973 263.333,-973 263.333,-973 267.167,-973 271,-976.833 271,-980.667 271,-980.667 271,-988.333 271,-988.333 271,-992.167 267.167,-996 263.333,-996"/>
<text text-anchor="middle" x="140.5" y="-980.8" font-family="Arial" font-size="14.00" fill="#c6c5fe">scripts/按钮显现隐藏/PopupController.ts</text>
</g>
<!-- scripts/按钮显现隐藏/PopupManager.ts -->
<g id="node39" class="node"><title>scripts/按钮显现隐藏/PopupManager.ts</title>
<path fill="none" stroke="#cfffac" d="M563.333,-996C563.333,-996 324.667,-996 324.667,-996 320.833,-996 317,-992.167 317,-988.333 317,-988.333 317,-980.667 317,-980.667 317,-976.833 320.833,-973 324.667,-973 324.667,-973 563.333,-973 563.333,-973 567.167,-973 571,-976.833 571,-980.667 571,-980.667 571,-988.333 571,-988.333 571,-992.167 567.167,-996 563.333,-996"/>
<text text-anchor="middle" x="444" y="-980.8" font-family="Arial" font-size="14.00" fill="#cfffac">scripts/按钮显现隐藏/PopupManager.ts</text>
</g>
<!-- scripts/按钮显现隐藏/PopupController.ts&#45;&gt;scripts/按钮显现隐藏/PopupManager.ts -->
<g id="edge37" class="edge"><title>scripts/按钮显现隐藏/PopupController.ts&#45;&gt;scripts/按钮显现隐藏/PopupManager.ts</title>
<path fill="none" stroke="#757575" d="M271.113,-984.5C282.84,-984.5 294.741,-984.5 306.525,-984.5"/>
<polygon fill="#757575" stroke="#757575" points="306.843,-988 316.843,-984.5 306.843,-981 306.843,-988"/>
</g>
<!-- scripts/按钮显现隐藏/PopupHider.ts -->
<g id="node40" class="node"><title>scripts/按钮显现隐藏/PopupHider.ts</title>
<path fill="none" stroke="#cfffac" d="M249.333,-1037C249.333,-1037 31.6667,-1037 31.6667,-1037 27.8333,-1037 24,-1033.17 24,-1029.33 24,-1029.33 24,-1021.67 24,-1021.67 24,-1017.83 27.8333,-1014 31.6667,-1014 31.6667,-1014 249.333,-1014 249.333,-1014 253.167,-1014 257,-1017.83 257,-1021.67 257,-1021.67 257,-1029.33 257,-1029.33 257,-1033.17 253.167,-1037 249.333,-1037"/>
<text text-anchor="middle" x="140.5" y="-1021.8" font-family="Arial" font-size="14.00" fill="#cfffac">scripts/按钮显现隐藏/PopupHider.ts</text>
</g>
<!-- scripts/按钮显现隐藏/PopupHiderButton.ts -->
<g id="node41" class="node"><title>scripts/按钮显现隐藏/PopupHiderButton.ts</title>
<path fill="none" stroke="#cfffac" d="M269.833,-1078C269.833,-1078 11.1667,-1078 11.1667,-1078 7.33333,-1078 3.5,-1074.17 3.5,-1070.33 3.5,-1070.33 3.5,-1062.67 3.5,-1062.67 3.5,-1058.83 7.33333,-1055 11.1667,-1055 11.1667,-1055 269.833,-1055 269.833,-1055 273.667,-1055 277.5,-1058.83 277.5,-1062.67 277.5,-1062.67 277.5,-1070.33 277.5,-1070.33 277.5,-1074.17 273.667,-1078 269.833,-1078"/>
<text text-anchor="middle" x="140.5" y="-1062.8" font-family="Arial" font-size="14.00" fill="#cfffac">scripts/按钮显现隐藏/PopupHiderButton.ts</text>
</g>
<!-- scripts/节点生成/GameUIManager.ts -->
<g id="node42" class="node"><title>scripts/节点生成/GameUIManager.ts</title>
<path fill="none" stroke="#cfffac" d="M252.833,-1119C252.833,-1119 28.1667,-1119 28.1667,-1119 24.3333,-1119 20.5,-1115.17 20.5,-1111.33 20.5,-1111.33 20.5,-1103.67 20.5,-1103.67 20.5,-1099.83 24.3333,-1096 28.1667,-1096 28.1667,-1096 252.833,-1096 252.833,-1096 256.667,-1096 260.5,-1099.83 260.5,-1103.67 260.5,-1103.67 260.5,-1111.33 260.5,-1111.33 260.5,-1115.17 256.667,-1119 252.833,-1119"/>
<text text-anchor="middle" x="140.5" y="-1103.8" font-family="Arial" font-size="14.00" fill="#cfffac">scripts/节点生成/GameUIManager.ts</text>
</g>
<!-- scripts/财神数量UI/ClinkEvent.ts -->
<g id="node43" class="node"><title>scripts/财神数量UI/ClinkEvent.ts</title>
<path fill="none" stroke="#cfffac" d="M239.333,-1160C239.333,-1160 41.6667,-1160 41.6667,-1160 37.8333,-1160 34,-1156.17 34,-1152.33 34,-1152.33 34,-1144.67 34,-1144.67 34,-1140.83 37.8333,-1137 41.6667,-1137 41.6667,-1137 239.333,-1137 239.333,-1137 243.167,-1137 247,-1140.83 247,-1144.67 247,-1144.67 247,-1152.33 247,-1152.33 247,-1156.17 243.167,-1160 239.333,-1160"/>
<text text-anchor="middle" x="140.5" y="-1144.8" font-family="Arial" font-size="14.00" fill="#cfffac">scripts/财神数量UI/ClinkEvent.ts</text>
</g>
</g>
</svg>
